<?xml version="1.0" encoding="utf-8"?>
<!-- Generator: Adobe Illustrator 16.0.0, SVG Export Plug-In . SVG Version: 6.00 Build 0)  -->
<!DOCTYPE svg PUBLIC "-//W3C//DTD SVG 1.1//EN" "http://www.w3.org/Graphics/SVG/1.1/DTD/svg11.dtd">
<svg version="1.1" id="Layer_1" xmlns="http://www.w3.org/2000/svg" xmlns:xlink="http://www.w3.org/1999/xlink" x="0px" y="0px"
	 width="82px" height="82px" viewBox="0 0 82 82" enable-background="new 0 0 82 82" xml:space="preserve">
<rect fill="#9C9C9C" width="82" height="82"/>
<g>
	<g>
		<path fill="#FFFFFF" d="M60.275,24H19.724c-0.398-0.002-0.722,0.318-0.724,0.716c0,0,0,0.001,0,0.001v31.566
			c0.001,0.397,0.325,0.719,0.723,0.717c0,0,0,0,0.001,0h40.551c0.4,0,0.725-0.32,0.725-0.717V24.717
			c-0.002-0.397-0.325-0.718-0.723-0.717C60.277,24,60.276,24,60.275,24z M59.553,55.564H20.448V25.435h39.104V55.564z"/>
		<path fill="#FFFFFF" d="M30.698,39.94c2.254,0,4.087-1.818,4.087-4.054c0-2.237-1.833-4.055-4.087-4.055
			c-2.254,0-4.087,1.818-4.087,4.055C26.611,38.122,28.444,39.941,30.698,39.94L30.698,39.94z M30.698,33.287
			c1.444,0,2.62,1.166,2.62,2.599c0,1.432-1.176,2.598-2.62,2.598c-1.444,0-2.62-1.165-2.62-2.598
			C28.078,34.454,29.254,33.286,30.698,33.287L30.698,33.287z"/>
		<path fill="#FFFFFF" d="M23.954,52.805c0.17,0,0.341-0.059,0.48-0.179L36.27,42.323l7.476,7.39c0.284,0.281,0.742,0.281,1.025,0
			c0.281-0.274,0.285-0.725,0.01-1.004c-0.002-0.004-0.006-0.007-0.01-0.01l-3.487-3.449l6.663-7.213l8.171,7.406
			c0.296,0.268,0.753,0.248,1.026-0.045c0.268-0.287,0.252-0.736-0.035-1.004c-0.004-0.004-0.007-0.006-0.01-0.01l-8.709-7.892
			c-0.296-0.269-0.754-0.249-1.025,0.045l-7.108,7.696l-3.442-3.403c-0.272-0.267-0.704-0.281-0.992-0.031l-12.35,10.749
			c-0.297,0.258-0.33,0.707-0.073,1.004c0.002,0.004,0.005,0.006,0.008,0.01C23.546,52.717,23.745,52.806,23.954,52.805
			L23.954,52.805z"/>
	</g>
</g>
</svg>
