<svg xmlns="http://www.w3.org/2000/svg" xmlns:xlink="http://www.w3.org/1999/xlink" viewBox="0 0 1487.6 1400.7">
  <defs>
    <style>
      .cls-1 {
        fill: none;
      }

      .cls-2 {
        isolation: isolate;
      }

      .cls-3 {
        clip-path: url(#clip-path);
      }

      .cls-4, .cls-6 {
        fill: #262b56;
        mix-blend-mode: multiply;
      }

      .cls-4 {
        opacity: 0.12;
      }

      .cls-5 {
        clip-path: url(#clip-path-2);
      }

      .cls-6 {
        opacity: 0.08;
      }
    </style>
    <clipPath id="clip-path">
      <rect class="cls-1" x="106.2" y="1805.8" width="1899" height="128.72"/>
    </clipPath>
    <clipPath id="clip-path-2">
      <rect class="cls-1" x="-89.8" width="2073.5" height="1400.75"/>
    </clipPath>
  </defs>
  <title>login-and-another</title>
  <g class="cls-2">
    <g id="Layer_1" data-name="Layer 1">
      <g class="cls-3">
        <path class="cls-4" d="M1497.1,1817.3c-128.7,0-306.7,91.3-408.4,150.4-19.7-217.2-12.3-357.9-6.1-430.8,0-.5.6-.7,1-.5,62.9,39.7,45.2,150.7,32.1,182.4-.3.6.7,1.1,1.1.6,78.4-92.9,40.2-195.4,24-221.4a.7.7,0,0,1,1-.8c70.2,57.2,67.1,132.9,63.3,175.3-.1.7.9.9,1.2.3,28.5-56.1,37.2-151.2-50.3-228.3-.5-.4,0-1.2.5-1.1,78.2,18.9,109.9,93.1,110.5,148.4,0,1,.1,1.9.1,2.8s1,.8,1.2.1c11.2-41.4,8.8-75-1.3-101.9-22.6-60.9-84-87.5-113.8-91.2-.7-.1-.6-1.2.1-1.3,58.3-5.4,93.6,12.7,113.7,30.5a100.2,100.2,0,0,1,21.9,26.9c.3.7,1.2.3,1.2-.4a99.8,99.8,0,0,0-23.1-55.5c-34.5-41.2-99.3-52.7-141.2-35.1a.6.6,0,0,1-.8-.9c27.2-39,81.3-43,110-29.4.7.3,1.2-.4.8-.9-43-49.4-113.7-50.5-151.4,6.6a.6.6,0,0,1-1,0,253.5,253.5,0,0,1-11.7-23.9c-8.1-18.6-11.7-39.6-15.1-60.4a.9.9,0,0,0-1.7,0c-3.4,20.8-7,41.8-15.1,60.4a253.5,253.5,0,0,1-11.7,23.9.7.7,0,0,1-1.1,0c-37.6-57.1-108.3-56-151.3-6.6a.6.6,0,0,0,.8.9c28.7-13.6,82.9-9.6,109.9,29.4.4.5-.1,1.2-.6.9-42-17.6-106.8-6.1-141.3,35.1a99.8,99.8,0,0,0-23.1,55.5c0,.7.9,1.1,1.2.4a102.4,102.4,0,0,1,21.9-26.9c20.2-17.8,55.5-35.9,113.7-30.5.7.1.8,1.2.1,1.3-29.8,3.7-91.1,30.3-113.8,91.2-10,26.9-12.5,60.5-1.3,101.9.2.7,1.2.7,1.2-.1a27.2,27.2,0,0,1,.1-2.8c.6-55.3,32.2-129.5,110.4-148.4a.6.6,0,0,1,.6,1.1c-87.5,77.1-78.8,172.2-50.3,228.3a.6.6,0,0,0,1.2-.3c-3.8-42.4-6.9-118.1,63.3-175.3.5-.4,1.4.2,1,.8-16.1,26-54.5,128.5,24,221.4.5.5,1.4,0,1.1-.6-13.2-31.7-30.8-142.7,32.1-182.4.5-.2,1,0,1,.5,6.2,72.9,13.6,213.6-6.1,430.8-101.8-59.1-279.7-150.4-408.4-150.4-39.6,0-72.7,10.5-70.6,10.9,170.3,26.8,372,145.3,456.8,199.1-54.7,34.2-230,142.6-251,142.6-10.7,0-12.2-12.9-21.2-12.9s-8.2,5.9-8.2,8.4c0,36.4,49.7,60.1,89.9,41.2l245.7-142,245.6,142c40.1,18.9,89.8-4.8,89.8-41.2,0-2.5,0-8.4-8.1-8.4s-10.5,12.9-21.2,12.9c-21,0-196.3-108.4-251-142.6,84.8-53.8,286.5-172.3,456.7-199.1,2.2-.4-30.8-10.9-70.5-10.9"/>
      </g>
      <g class="cls-5">
        <path class="cls-6" d="M1398.1,820.7c-190.9,0-454.6,133.7-605.5,220.3-29.2-318.2-18.2-524.3-9-631.1a.9.9,0,0,1,1.4-.7c93.3,58.2,67.1,220.7,47.6,267.2-.4.9,1.1,1.6,1.7.8C950.6,541.1,893.8,391,869.9,352.9c-.5-.9.7-1.7,1.5-1.1,104,83.7,99.4,194.6,93.8,256.7a.9.9,0,0,0,1.8.5c42.2-82.3,55.1-221.5-74.6-334.5-.7-.5,0-1.7.8-1.6C1009.1,300.7,1056,409.3,1057,490.4c0,1.3.1,2.7.1,4a.9.9,0,0,0,1.7.2c16.7-60.6,13-109.9-1.8-149.4C1023.4,256,932.5,217,888.3,211.6c-1.1-.1-.9-1.7.2-1.8,86.3-8,138.6,18.6,168.5,44.7,18.4,16.1,28.4,32,32.3,39.4a1.1,1.1,0,0,0,1.9-.6c-3.3-32.7-15.9-59.8-34.2-81.4-51.2-60.2-147.3-77.2-209.4-51.3a.9.9,0,0,1-1.1-1.4c40.2-57.1,120.5-63,163.1-43a.9.9,0,0,0,1.1-1.4c-63.8-72.3-168.5-73.9-224.4,9.7a.9.9,0,0,1-1.5,0,345.8,345.8,0,0,1-17.3-35c-12-27.3-17.4-58-22.4-88.6a1.3,1.3,0,0,0-2.5,0c-5.1,30.6-10.4,61.3-22.4,88.6a368.2,368.2,0,0,1-17.4,35,.8.8,0,0,1-1.5,0c-55.8-83.6-160.6-82-224.3-9.7a.9.9,0,0,0,1.1,1.4c42.5-20,122.9-14.1,163,43a.9.9,0,0,1-1,1.4c-62.2-25.9-158.2-8.9-209.4,51.3-18.4,21.6-30.9,48.7-34.2,81.4-.1.9,1.3,1.5,1.7.6,4.1-7.4,14.1-23.3,32.5-39.4,29.9-26.1,82.2-52.7,168.5-44.7,1.1.1,1.2,1.7.2,1.8C555.2,217,464.3,256,430.7,345.2c-14.8,39.5-18.5,88.8-1.9,149.4.3,1,1.8.9,1.7-.2s.1-2.7.2-4c.9-81.1,47.8-189.7,163.7-217.5.9-.1,1.5,1.1.8,1.6C465.5,387.5,478.4,526.7,520.7,609a.9.9,0,0,0,1.7-.5c-5.6-62.1-10.2-173,93.9-256.7.7-.6,2,.2,1.5,1.1C593.9,391,537,541.1,653.3,677.2c.7.8,2.1.1,1.7-.8-19.5-46.5-45.8-209,47.6-267.2a1,1,0,0,1,1.5.7c9.1,106.8,20.1,312.9-9.1,631.1C544.1,954.4,280.5,820.7,89.6,820.7c-58.7,0-107.7,15.4-104.6,15.9,252.4,39.4,551.4,212.9,677.1,291.7-81.2,50.1-341,208.9-372,208.9-15.9,0-18.1-18.8-31.5-18.8s-12.1,8.7-12.1,12.2c0,53.4,73.7,88,133.2,60.4l364.1-208.1L1107.9,1391c59.5,27.6,133.2-7,133.2-60.4,0-3.5,0-12.2-12.1-12.2s-15.5,18.8-31.4,18.8c-31.1,0-290.9-158.8-372.1-208.9,125.8-78.8,424.7-252.3,677.1-291.7,3.2-.5-45.8-15.9-104.5-15.9"/>
      </g>
    </g>
  </g>
</svg>
