<?xml version="1.0" encoding="utf-8"?>
<!-- Generator: Adobe Illustrator 16.0.0, SVG Export Plug-In . SVG Version: 6.00 Build 0)  -->
<!DOCTYPE svg PUBLIC "-//W3C//DTD SVG 1.1//EN" "http://www.w3.org/Graphics/SVG/1.1/DTD/svg11.dtd">
<svg version="1.1" id="Layer_1" xmlns="http://www.w3.org/2000/svg" xmlns:xlink="http://www.w3.org/1999/xlink" x="0px" y="0px"
	 width="47px" height="43.879px" viewBox="0 0 47 43.879" enable-background="new 0 0 47 43.879" xml:space="preserve">
<g>
	<path fill="#F5CA23" d="M19.755,18.008l-0.484,6.485l4.701-1.33"/>
	<path fill="#1C5CC7" d="M20.68,19.105l8.783,10.943L46.528,0.871L20.68,19.105z"/>
	<path fill="#DCDCDC" d="M42.456,3.426L27.26,27.764l1.826,2.285L46.06,0.871L42.456,3.426z"/>
	<path fill="#1C5CC7" d="M20.407,18.937l-8.658-9.892l34.312-8.172L20.407,18.937z"/>
	<path fill="#262B56" d="M46.958,0.926c0.014-0.035,0.021-0.071,0.029-0.108V0.813c0.008-0.037,0.012-0.073,0.012-0.11V0.698
		c0-0.037-0.002-0.074-0.008-0.11V0.583c-0.006-0.035-0.015-0.069-0.023-0.103l-0.004-0.011c-0.008-0.021-0.018-0.044-0.025-0.066
		l-0.014-0.028l-0.01-0.015c-0.016-0.03-0.033-0.059-0.055-0.086l-0.011-0.011c-0.021-0.028-0.045-0.055-0.071-0.079L46.774,0.18
		l-0.007-0.003c-0.024-0.024-0.055-0.045-0.084-0.065l-0.01-0.007c-0.029-0.019-0.062-0.035-0.095-0.048L46.567,0.05
		c-0.033-0.013-0.065-0.023-0.1-0.031l-0.01-0.003c-0.035-0.007-0.07-0.013-0.104-0.015h-0.011
		c-0.066-0.004-0.135,0.001-0.199,0.017l-17.824,4.28c-0.371,0.089-0.602,0.463-0.512,0.834s0.463,0.6,0.834,0.51l0,0l14.348-3.447
		L42.11,2.819L20.647,18.056l-7.539-8.684L25.815,6.32c0.369-0.089,0.6-0.462,0.51-0.833c-0.09-0.371-0.463-0.6-0.834-0.51
		L11.682,8.295c-0.371,0.089-0.601,0.462-0.512,0.833c0.026,0.107,0.077,0.207,0.149,0.291l7.433,8.562l-0.474,6.35
		c-0.026,0.381,0.256,0.713,0.637,0.739c0.082,0.009,0.164-0.002,0.242-0.022l4.347-1.235l5.25,6.584
		c0.237,0.299,0.674,0.35,0.973,0.11c0.068-0.055,0.125-0.121,0.168-0.194l3.15-5.422c0.18-0.339,0.051-0.757-0.285-0.937
		c-0.319-0.17-0.72-0.063-0.912,0.241l-2.644,4.548l-7.669-9.619L44.106,3.099L33.325,21.656c-0.181,0.337-0.053,0.756,0.285,0.936
		c0.319,0.17,0.719,0.064,0.912-0.243l12.383-21.31V1.036c0.021-0.033,0.037-0.068,0.051-0.104L46.958,0.926z M19.733,23.445
		l0.297-3.992l2.541,3.185L19.733,23.445L19.733,23.445z"/>
	<path fill="#262B56" d="M15.454,20.379c0.225,0.308,0.158,0.739-0.15,0.964l0,0c-0.141,0.102-0.275,0.208-0.41,0.315
		c-0.293,0.242-0.729,0.199-0.971-0.096c0,0,0-0.001-0.002-0.002c-0.24-0.295-0.197-0.73,0.098-0.971l0,0
		c0.152-0.124,0.311-0.245,0.471-0.36C14.796,20.004,15.227,20.071,15.454,20.379L15.454,20.379z M11.155,29.573l-0.027,0.002
		c-0.371,0-0.676-0.293-0.691-0.662c-0.014-0.379-0.014-0.759,0.008-1.138c0.033-0.381,0.373-0.659,0.752-0.625
		c0.357,0.033,0.633,0.336,0.629,0.693c-0.02,0.338-0.02,0.676-0.004,1.012C11.835,29.236,11.536,29.559,11.155,29.573z
		 M8.237,32.747c0.366-0.104,0.75,0.11,0.854,0.479c0.104,0.366-0.107,0.75-0.479,0.854c-0.021,0.008-0.047,0.014-0.07,0.018
		c-0.338,0.076-0.67,0.164-0.988,0.262c-0.363,0.111-0.752-0.092-0.863-0.457c-0.111-0.362,0.092-0.75,0.455-0.86
		c0-0.002,0.002-0.002,0.002-0.002C7.499,32.928,7.866,32.831,8.237,32.747z M3.969,34.521c0.328-0.192,0.752-0.084,0.946,0.244
		c0.179,0.301,0.104,0.688-0.176,0.9c-0.276,0.188-0.543,0.391-0.789,0.602c-0.287,0.25-0.725,0.219-0.975-0.067
		c0,0,0-0.002-0.002-0.002c-0.248-0.289-0.219-0.726,0.07-0.974c0-0.002,0.002-0.002,0.002-0.002
		C3.337,34.977,3.645,34.741,3.969,34.521z M20.216,36.436c-0.186-0.24-0.396-0.457-0.637-0.646
		c-0.295-0.242-0.338-0.678-0.098-0.973c0.241-0.295,0.678-0.34,0.973-0.099c0.34,0.275,0.633,0.574,0.865,0.884
		c0.229,0.305,0.17,0.735-0.136,0.967c-0.118,0.092-0.266,0.141-0.416,0.141C20.552,36.709,20.346,36.607,20.216,36.436z
		 M1.798,37.73c0.346,0.162,0.492,0.572,0.33,0.918l0,0c-0.139,0.297-0.258,0.603-0.357,0.912c-0.137,0.355-0.537,0.531-0.895,0.396
		c-0.324-0.125-0.506-0.474-0.422-0.812c0.117-0.371,0.26-0.735,0.426-1.084c0.162-0.346,0.574-0.492,0.92-0.33H1.798z
		 M11.575,25.23c-0.353-0.146-0.521-0.549-0.373-0.901c0,0,0,0,0-0.002c0.149-0.354,0.32-0.703,0.512-1.041
		c0.207-0.32,0.635-0.414,0.957-0.209c0.299,0.19,0.402,0.577,0.244,0.896c-0.162,0.284-0.309,0.582-0.437,0.887
		C12.333,25.209,11.928,25.377,11.575,25.23z M16.864,34.424c-0.326-0.104-0.654-0.193-0.986-0.271
		c-0.371-0.09-0.6-0.461-0.512-0.832c0.088-0.37,0.461-0.602,0.832-0.514c0.371,0.09,0.737,0.189,1.086,0.301
		c0.363,0.115,0.563,0.504,0.447,0.869C17.616,34.338,17.227,34.54,16.864,34.424z M17.511,39.441
		c0.336,0.183,0.463,0.601,0.281,0.937c-0.18,0.336-0.6,0.463-0.936,0.281l0,0c-0.349-0.188-0.681-0.406-0.994-0.65
		c-0.302-0.231-0.355-0.668-0.123-0.969c0.233-0.304,0.668-0.356,0.971-0.125l0,0C16.979,39.125,17.249,39.303,17.511,39.441z
		 M21.262,38.51c0.334,0.184,0.457,0.604,0.272,0.938c0,0,0,0-0.002,0.002c-0.205,0.385-0.479,0.731-0.799,1.026
		c-0.283,0.254-0.723,0.23-0.977-0.053c0-0.002,0-0.002-0.002-0.002c-0.254-0.285-0.229-0.721,0.055-0.975c0,0,0-0.002,0.002-0.002
		c0.186-0.166,0.357-0.391,0.51-0.664C20.509,38.448,20.928,38.327,21.262,38.51L21.262,38.51z M13.444,33.066
		c-0.017,0.382-0.336,0.677-0.718,0.664c-0.104-0.004-0.207-0.008-0.309-0.01c-0.248,0.182-0.587,0.18-0.83-0.008
		c-0.379-0.049-0.646-0.396-0.597-0.771c0.015-0.104,0.052-0.207,0.107-0.295l-0.094-0.313c-0.104-0.367,0.105-0.75,0.477-0.855
		c0.365-0.104,0.75,0.105,0.854,0.474l0,0c0.037,0.131,0.076,0.26,0.117,0.389c0.108,0.002,0.217,0.007,0.324,0.013
		C13.163,32.364,13.462,32.686,13.444,33.066z M14.032,35.786c0.18,0.297,0.369,0.584,0.563,0.858
		c0.222,0.312,0.147,0.74-0.162,0.961c-0.116,0.084-0.258,0.129-0.399,0.129c-0.226,0-0.437-0.106-0.564-0.291
		c-0.213-0.299-0.422-0.614-0.619-0.938c-0.197-0.324-0.096-0.752,0.23-0.949C13.407,35.357,13.833,35.461,14.032,35.786
		L14.032,35.786L14.032,35.786z M1.384,42.614c0.004,0.172,0.016,0.348,0.027,0.521c0.027,0.383-0.258,0.715-0.639,0.742
		c-0.382,0.027-0.714-0.258-0.742-0.641c-0.015-0.193-0.023-0.389-0.029-0.58c-0.012-0.383,0.287-0.701,0.67-0.713
		C1.052,41.934,1.372,42.232,1.384,42.614z"/>
</g>
</svg>
