<?xml version="1.0" encoding="utf-8"?>
<!-- Generator: Adobe Illustrator 16.0.0, SVG Export Plug-In . SVG Version: 6.00 Build 0)  -->
<!DOCTYPE svg PUBLIC "-//W3C//DTD SVG 1.1//EN" "http://www.w3.org/Graphics/SVG/1.1/DTD/svg11.dtd">
<svg version="1.1" id="Layer_1" xmlns="http://www.w3.org/2000/svg" xmlns:xlink="http://www.w3.org/1999/xlink" x="0px" y="0px"
	 width="131.135px" height="47.279px" viewBox="0 0 131.135 47.279" enable-background="new 0 0 131.135 47.279"
	 xml:space="preserve">
<g>
	<path fill="#F5CA23" d="M103.89,18.008l-0.484,6.484l4.701-1.33"/>
	<path fill="#1C5CC7" d="M104.815,19.105l8.783,10.942l17.063-29.18L104.815,19.105z"/>
	<path fill="#DCDCDC" d="M126.592,3.426l-15.196,24.34l1.826,2.284l16.975-29.18L126.592,3.426z"/>
	<path fill="#1C5CC7" d="M104.542,18.936l-8.657-9.895l34.312-8.172L104.542,18.936z"/>
	<path fill="#262B56" d="M131.093,0.926c0.014-0.032,0.022-0.068,0.03-0.105V0.813c0.007-0.037,0.011-0.073,0.012-0.11V0.697
		c0-0.037-0.002-0.074-0.008-0.11V0.583c-0.006-0.035-0.015-0.066-0.024-0.103l-0.004-0.014c-0.008-0.021-0.017-0.044-0.023-0.063
		l-0.016-0.028l-0.009-0.015c-0.016-0.03-0.034-0.062-0.056-0.086l-0.01-0.011c-0.021-0.028-0.045-0.058-0.071-0.079l-0.005-0.005
		l-0.006-0.006c-0.024-0.021-0.055-0.045-0.084-0.063l-0.01-0.007c-0.029-0.021-0.063-0.035-0.096-0.048l-0.012-0.009
		c-0.033-0.013-0.064-0.021-0.102-0.028l-0.01-0.003c-0.035-0.01-0.07-0.016-0.104-0.018h-0.012
		c-0.065-0.004-0.136,0.001-0.199,0.02l-17.824,4.277c-0.371,0.092-0.602,0.463-0.512,0.834c0.091,0.371,0.463,0.603,0.834,0.513
		l0,0l14.349-3.447l-0.88,0.624l-21.462,15.236L97.244,9.37l12.706-3.051c0.369-0.089,0.6-0.462,0.511-0.833
		c-0.09-0.371-0.463-0.602-0.834-0.51l-13.81,3.317c-0.371,0.089-0.603,0.462-0.512,0.833c0.024,0.107,0.075,0.207,0.147,0.291
		l7.435,8.563l-0.475,6.35c-0.025,0.38,0.256,0.712,0.636,0.74c0.082,0.007,0.164-0.003,0.243-0.024l4.348-1.233l5.25,6.585
		c0.236,0.299,0.674,0.349,0.973,0.107c0.068-0.055,0.125-0.118,0.168-0.191l3.15-5.423c0.18-0.34,0.051-0.759-0.285-0.938
		c-0.32-0.17-0.722-0.063-0.912,0.243l-2.645,4.547l-7.671-9.619L128.242,3.1L117.46,21.655c-0.18,0.337-0.052,0.756,0.285,0.937
		c0.32,0.173,0.719,0.064,0.912-0.241l12.384-21.313V1.035c0.021-0.033,0.036-0.068,0.05-0.104L131.093,0.926z M103.869,23.446
		l0.297-3.993l2.54,3.188L103.869,23.446L103.869,23.446z"/>
	<path fill="#FBFBFB" d="M99.589,20.379c0.225,0.311,0.158,0.739-0.15,0.964l0,0c-0.141,0.104-0.274,0.208-0.41,0.315
		c-0.293,0.242-0.729,0.199-0.971-0.096c0,0,0-0.001-0.002-0.002c-0.24-0.295-0.197-0.73,0.098-0.974l0,0
		c0.152-0.124,0.312-0.245,0.472-0.357C98.931,20.004,99.362,20.071,99.589,20.379L99.589,20.379z M95.291,29.573l-0.028,0.001
		c-0.371,0-0.676-0.292-0.691-0.662c-0.014-0.379-0.014-0.758,0.009-1.137c0.032-0.381,0.373-0.66,0.753-0.625
		c0.355,0.033,0.632,0.336,0.628,0.692c-0.021,0.34-0.021,0.677-0.004,1.014C95.97,29.237,95.672,29.559,95.291,29.573z
		 M92.372,32.747c0.367-0.104,0.75,0.11,0.854,0.479c0.104,0.365-0.106,0.751-0.478,0.854c-0.022,0.007-0.047,0.013-0.071,0.02
		c-0.337,0.073-0.67,0.161-0.988,0.262c-0.362,0.11-0.752-0.093-0.861-0.457c-0.112-0.364,0.092-0.75,0.453-0.862
		c0-0.001,0.004-0.001,0.004-0.001C91.634,32.927,92.002,32.831,92.372,32.747z M88.104,34.522c0.328-0.194,0.752-0.085,0.944,0.243
		c0.181,0.302,0.104,0.688-0.175,0.899c-0.275,0.188-0.544,0.392-0.789,0.603c-0.288,0.25-0.727,0.219-0.977-0.068
		c0,0,0-0.002-0.002-0.002c-0.248-0.288-0.219-0.724,0.07-0.973c0-0.001,0.002-0.002,0.002-0.002
		C87.472,34.976,87.78,34.74,88.104,34.522z M104.351,36.435c-0.186-0.24-0.396-0.457-0.636-0.646
		c-0.296-0.241-0.339-0.677-0.098-0.972s0.677-0.34,0.972-0.101c0.34,0.276,0.633,0.574,0.866,0.887
		c0.229,0.304,0.169,0.733-0.136,0.966c-0.119,0.092-0.266,0.141-0.416,0.141C104.687,36.709,104.481,36.607,104.351,36.435z
		 M85.933,37.73c0.346,0.162,0.493,0.57,0.33,0.918c0,0,0,0,0,0.001c-0.139,0.296-0.258,0.601-0.357,0.912
		c-0.137,0.354-0.536,0.529-0.895,0.395c-0.324-0.126-0.505-0.474-0.422-0.811c0.118-0.372,0.26-0.737,0.426-1.084
		c0.162-0.348,0.574-0.493,0.92-0.33L85.933,37.73z M95.711,25.23c-0.353-0.146-0.521-0.549-0.374-0.901
		c0-0.001,0.001-0.001,0.001-0.002c0.149-0.354,0.319-0.704,0.511-1.041c0.207-0.321,0.635-0.415,0.957-0.209
		c0.299,0.19,0.403,0.577,0.244,0.896c-0.162,0.283-0.309,0.579-0.436,0.887C96.468,25.21,96.063,25.377,95.711,25.23z
		 M100.999,34.424c-0.325-0.104-0.654-0.191-0.986-0.271c-0.371-0.089-0.6-0.461-0.512-0.832s0.461-0.604,0.832-0.513
		c0.372,0.089,0.738,0.188,1.086,0.301c0.363,0.115,0.564,0.504,0.448,0.868C101.751,34.339,101.362,34.539,100.999,34.424z
		 M101.646,39.442c0.336,0.181,0.463,0.6,0.281,0.936c-0.18,0.336-0.599,0.462-0.935,0.281l0,0
		c-0.349-0.188-0.681-0.407-0.994-0.651c-0.302-0.229-0.356-0.667-0.124-0.969c0.234-0.303,0.668-0.354,0.971-0.124l0,0
		C101.114,39.125,101.385,39.302,101.646,39.442z M105.397,38.51c0.334,0.187,0.457,0.604,0.271,0.938c0,0,0,0-0.001,0.001
		c-0.206,0.386-0.479,0.733-0.8,1.028c-0.283,0.254-0.724,0.229-0.978-0.056c0-0.002,0-0.002-0.002-0.002
		c-0.254-0.282-0.229-0.721,0.055-0.975c0,0,0-0.001,0.002-0.001c0.188-0.166,0.357-0.39,0.511-0.664
		C104.644,38.447,105.063,38.326,105.397,38.51L105.397,38.51z M97.58,33.066c-0.017,0.381-0.337,0.677-0.718,0.664
		c-0.104-0.004-0.207-0.008-0.309-0.01c-0.248,0.182-0.588,0.18-0.83-0.009c-0.379-0.049-0.646-0.396-0.599-0.771
		c0.017-0.105,0.054-0.206,0.106-0.294l-0.094-0.313c-0.104-0.367,0.106-0.75,0.478-0.854c0.364-0.106,0.75,0.104,0.854,0.473l0,0
		c0.036,0.13,0.075,0.26,0.116,0.389c0.108,0.002,0.218,0.009,0.325,0.014C97.298,32.364,97.597,32.686,97.58,33.066z
		 M98.167,35.786c0.18,0.296,0.37,0.584,0.564,0.858c0.222,0.311,0.146,0.738-0.162,0.962c-0.117,0.083-0.258,0.128-0.4,0.128
		c-0.225,0-0.436-0.107-0.564-0.29c-0.213-0.3-0.422-0.615-0.619-0.938c-0.195-0.323-0.096-0.752,0.23-0.948
		C97.542,35.358,97.968,35.461,98.167,35.786L98.167,35.786L98.167,35.786z M85.519,42.614c0.004,0.172,0.018,0.347,0.027,0.521
		c0.028,0.384-0.258,0.716-0.639,0.741c-0.381,0.028-0.713-0.258-0.741-0.639c-0.015-0.194-0.024-0.39-0.03-0.582
		c-0.012-0.382,0.288-0.7,0.67-0.712C85.187,41.934,85.507,42.232,85.519,42.614z"/>
</g>
<g>
	<path fill="#FBFBFB" d="M15.794,15.885v11.264H6.808c-4.481,0-6.689-1.509-6.689-4.797c0-1.396,0.406-3.085,0.586-4.031l2.41,0.451
		c-0.181,0.923-0.541,2.41-0.541,3.604c0,1.849,0.924,2.567,4.234,2.567h6.531v-9.057L15.794,15.885L15.794,15.885z M7.258,15.84
		H4.804V13.23h2.454V15.84z M11.109,15.84H8.654V13.23h2.455V15.84z"/>
	<path fill="#FBFBFB" d="M34.018,26.042c0,0.676-0.09,1.104-0.45,1.104h-15.18v-2.207h3.423v-10.63h2.455v10.63h4.279V11.201h2.454
		v13.738h2.568C33.928,24.939,34.018,25.367,34.018,26.042z"/>
	<path fill="#FBFBFB" d="M51.679,20.907v6.239h-5.563c-0.788,0-1.6-0.248-2.32-0.698c-0.676,0.473-1.554,0.698-2.702,0.698h-7.522
		c-0.383,0-0.45-0.431-0.45-1.104s0.067-1.104,0.45-1.104H36.5V17.01h2.455v7.931h2.14c1.419,0,1.734-0.405,1.734-3.021v-4.91h2.454
		v4.91c0,1.017-0.09,1.869-0.27,2.567c0.428,0.338,0.743,0.451,1.104,0.451h3.107v-4.032c0-0.675-0.27-2.703-0.63-4.639l2.432-0.386
		C51.296,17.484,51.679,19.917,51.679,20.907z"/>
	<path fill="#FBFBFB" d="M55.399,11.201h2.455v15.945h-2.455V11.201z"/>
	<path fill="#FBFBFB" d="M67.495,26.042c0,0.676-0.09,1.104-0.45,1.104h-2.59v0.943c0,2.771-1.689,4.617-4.122,4.617
		c-0.383,0-0.855-0.045-1.261-0.09l0.292-2.207c0.451,0.045,0.767,0.09,0.969,0.09c1.014,0,1.667-0.833,1.667-2.41V15.885h2.455
		v9.057h2.59C67.405,24.939,67.495,25.367,67.495,26.042z"/>
	<path fill="#FBFBFB" d="M80.312,21.628v5.521H67.046c-0.383,0-0.449-0.431-0.449-1.104s0.066-1.104,0.449-1.104h2.771
		c-0.137-0.856-0.229-1.938-0.229-3.085c0-2.188,0.385-4.324,0.653-5.36c0.676-0.271,2.297-0.607,4.146-0.607
		C78.329,15.885,80.312,17.417,80.312,21.628z M77.856,24.939v-3.313c0-2.792-0.724-3.536-3.469-3.536
		c-0.699,0-1.422,0.067-2.027,0.158c-0.18,1.104-0.314,2.435-0.314,3.604c0,1.058,0.112,2.229,0.225,3.085L77.856,24.939
		L77.856,24.939z"/>
</g>
<g>
	<path fill="#28AAE1" d="M0.761,43.536c0-2.646,1.143-3.848,3.139-3.848c2.025,0,3.038,1.056,3.038,3.313l-0.102,1.128h-4.47
		c0,1.157,0.435,1.724,1.635,1.724c0.839,0,2.025-0.072,2.676-0.133l0.029,1.188C5.997,47.052,4.71,47.24,3.769,47.24
		C1.6,47.239,0.761,46.082,0.761,43.536z M5.375,42.914c0-1.432-0.419-1.924-1.476-1.924c-1.07,0-1.533,0.55-1.547,1.924H5.375z"/>
	<path fill="#28AAE1" d="M9.799,37.171h2.807l2.198,7.728l2.199-7.728h2.82v9.909h-1.62v-8.115h-0.217l-2.344,7.71h-1.678
		l-2.329-7.71h-0.217v8.115h-1.62L9.799,37.171L9.799,37.171z"/>
	<path fill="#28AAE1" d="M22.625,43.42c0-2.343,0.811-3.729,3.226-3.729c2.431,0,3.227,1.389,3.227,3.729
		c0,2.401-0.738,3.819-3.227,3.819C23.377,47.239,22.625,45.822,22.625,43.42z M27.471,43.42c0-1.664-0.347-2.387-1.62-2.387
		c-1.258,0-1.62,0.723-1.62,2.387c0,1.681,0.29,2.477,1.62,2.477C27.196,45.894,27.471,45.098,27.471,43.42z"/>
	<path fill="#28AAE1" d="M31.794,39.847h1.576v0.854c0.521-0.333,1.563-0.839,2.445-1.012v1.591
		c-0.955,0.174-1.953,0.536-2.445,0.752v5.048h-1.576V39.847z"/>
	<path fill="#28AAE1" d="M37.708,44.939c0-1.533,0.839-2.057,2.387-2.187l1.852-0.156v-0.521c0-0.781-0.333-1.027-1.042-1.027
		s-1.967,0.087-2.72,0.146l-0.058-1.128c0.68-0.159,1.938-0.376,2.907-0.376c1.766,0,2.488,0.735,2.488,2.387v3.298
		c0.044,0.437,0.217,0.593,0.637,0.666l-0.043,1.201c-0.492,0-0.854-0.029-1.172-0.145c-0.275-0.073-0.521-0.203-0.752-0.394
		c-0.507,0.231-1.476,0.535-2.329,0.535C38.431,47.239,37.708,46.444,37.708,44.939z M41.946,45.619v-1.895l-1.664,0.145
		c-0.65,0.072-0.983,0.376-0.983,1.027c0,0.636,0.261,1.056,0.883,1.056C40.76,45.952,41.526,45.764,41.946,45.619z"/>
	<path fill="#28AAE1" d="M46.384,46.921l0.058-1.331c0.753,0.104,1.938,0.231,2.474,0.231c1.042,0,1.447-0.217,1.447-0.839
		c0-0.506-0.246-0.665-1.679-0.896c-1.591-0.261-2.401-0.605-2.401-2.141c0-1.635,1.273-2.242,2.705-2.242
		c0.781,0,2.011,0.174,2.734,0.318l-0.029,1.313c-0.737-0.102-1.952-0.229-2.589-0.229c-0.868,0-1.244,0.217-1.244,0.795
		c0,0.478,0.304,0.605,1.707,0.854c1.735,0.307,2.372,0.738,2.372,2.187c0,1.69-1.085,2.3-2.879,2.3
		C48.322,47.239,47.107,47.065,46.384,46.921z"/>
	<path fill="#28AAE1" d="M54.135,44.939c0-1.533,0.839-2.057,2.387-2.187l1.852-0.156v-0.521c0-0.781-0.333-1.027-1.042-1.027
		s-1.967,0.087-2.72,0.146l-0.058-1.128c0.68-0.159,1.938-0.376,2.908-0.376c1.765,0,2.487,0.735,2.487,2.387v3.298
		c0.044,0.437,0.217,0.593,0.637,0.666l-0.043,1.201c-0.492,0-0.854-0.029-1.172-0.145c-0.275-0.073-0.521-0.203-0.753-0.394
		c-0.506,0.231-1.475,0.535-2.328,0.535C54.857,47.239,54.135,46.444,54.135,44.939z M58.373,45.619v-1.895l-1.664,0.145
		c-0.65,0.072-0.983,0.376-0.983,1.027c0,0.636,0.261,1.056,0.883,1.056C57.187,45.952,57.953,45.764,58.373,45.619z"/>
	<path fill="#28AAE1" d="M63.173,36.838h1.576V47.08h-1.576V36.838z"/>
	<path fill="#28AAE1" d="M67.452,44.939c0-1.533,0.839-2.057,2.387-2.187l1.852-0.156v-0.521c0-0.781-0.332-1.027-1.041-1.027
		s-1.967,0.087-2.721,0.146l-0.058-1.128c0.68-0.159,1.938-0.376,2.907-0.376c1.766,0,2.488,0.735,2.488,2.387v3.298
		c0.043,0.437,0.217,0.593,0.637,0.666l-0.043,1.201c-0.492,0-0.854-0.029-1.172-0.145c-0.275-0.073-0.521-0.203-0.752-0.394
		c-0.508,0.231-1.479,0.535-2.33,0.535C68.175,47.239,67.452,46.444,67.452,44.939z M71.69,45.619v-1.895l-1.664,0.145
		c-0.65,0.072-0.983,0.376-0.983,1.027c0,0.636,0.261,1.056,0.883,1.056C70.504,45.952,71.271,45.764,71.69,45.619z"/>
	<path fill="#28AAE1" d="M76.735,44.549v-3.354H75.81v-1.346h0.926v-2.1h1.578v2.1h1.98v1.346h-1.98v3.182
		c0,1.085,0.027,1.461,0.781,1.461c0.288,0,0.838-0.026,1.186-0.058l0.072,1.271c-0.42,0.09-1.1,0.188-1.476,0.188
		C77.242,47.239,76.735,46.632,76.735,44.549z"/>
</g>
</svg>
