<svg xmlns="http://www.w3.org/2000/svg" width="44" height="44" viewBox="0 0 44 44">
    <g fill="#000" fill-rule="evenodd">
        <path fill-rule="nonzero" d="M13.852 0H0v13.852h13.852V0zm-2.77 11.081H2.77v-8.31h8.311v8.31z"/>
        <path d="M5.704 5.704h2.444v2.444H5.704z"/>
        <path fill-rule="nonzero" d="M30.148 0v13.852H44V0H30.148zM41.23 11.081h-8.311v-8.31h8.31v8.31z"/>
        <path d="M35.852 5.704h2.444v2.444h-2.444z"/>
        <path fill-rule="nonzero" d="M0 44h13.852V30.148H0V44zm2.77-11.081h8.311v8.31h-8.31v-8.31z"/>
        <path d="M5.704 35.852h2.444v2.444H5.704zM22 0h5.704v2.444H22zM22 10.593h2.852V7.877h2.852V5.16h-8.556V2.444h-2.852v5.433H22zM16.296 11.407h2.444v2.444h-2.444zM27.704 13.852h-2.852v2.852h-8.556v2.852h11.408zM2.852 24.852h2.852V22H2.852v-5.704H0v11.408h2.852zM5.704 16.296h2.444v2.444H5.704z"/>
        <path d="M16.46 27.704H22v-2.852h-2.77V22h-5.541v-5.704h-2.77V22h-2.77v5.704h2.77v-2.852h5.54zM25.259 22h2.444v5.704h-2.444zM24.607 30.148h-8.31v2.77h5.54v8.312h-5.54V44h8.31v-2.77h5.541v-2.77h-5.54z"/>
        <path d="M16.296 35.852h2.444v2.444h-2.444zM27.704 30.148h2.444v5.704h-2.444zM41.556 35.852h-8.149V44h2.716v-5.432h5.433z"/>
        <path d="M38.296 41.556H44V44h-5.704zM41.556 30.148H44v2.444h-2.444zM33 32.593h2.852v-8.149h-5.704v2.716H33zM38.46 19.148h-2.771v-2.852h-2.77v2.852h-2.77V22h11.08v-2.852H44v-2.852h-5.54zM38.296 25.259H44v2.444h-5.704z"/>
    </g>
</svg>
