<?xml version="1.0" encoding="utf-8"?>
<!-- Generator: Adobe Illustrator 16.0.0, SVG Export Plug-In . SVG Version: 6.00 Build 0)  -->
<!DOCTYPE svg PUBLIC "-//W3C//DTD SVG 1.1//EN" "http://www.w3.org/Graphics/SVG/1.1/DTD/svg11.dtd">
<svg version="1.1" id="Layer_1" xmlns="http://www.w3.org/2000/svg" xmlns:xlink="http://www.w3.org/1999/xlink" x="0px" y="0px"
	 width="74px" height="74px" viewBox="144.78 -5.944 74 74" enable-background="new 144.78 -5.944 74 74" xml:space="preserve">
<g>
	<g>
		<g>
			<polygon fill="none" points="150.185,2.168 147.483,20.348 149.365,20.596 151.525,4.104 			"/>
			<g>
				<path fill="#27A8E0" d="M205.09,32.203c-0.234,0-0.463,0.022-0.695,0.034c-0.184-9.462-7.896-17.077-17.4-17.077
					c-1.344,0-2.646,0.167-3.901,0.454l-31.175-14.51l26.75,16.17l14.837,8.97l-2.846-0.338l-15.078-1.789l-2.65,5.221l-1.324,2.607
					l-0.482,0.953c0.408,0.516,0.938,1.165,1.591,1.921c0.534,0.62,1.146,1.309,1.838,2.051c0.137,0.146,0.276,0.296,0.419,0.445
					c0.396,0.418,0.813,0.85,1.253,1.294c0.771,0.776,1.611,1.59,2.518,2.423c1.959,1.803,4.226,3.7,6.782,5.545
					c1.478,1.064,3.051,2.11,4.715,3.108c0.804,0.482,1.63,0.951,2.477,1.407c0.07,0.038,0.139,0.077,0.209,0.115
					c0,0,5.462,3.718,11.664,5.695c1.938,0.619,3.95,1.068,5.89,1.181c4.775-2.081,8.117-6.838,8.117-12.38
					C218.594,38.248,212.547,32.203,205.09,32.203z"/>
				<polygon fill="#27A8E0" points="170.838,33.46 170.846,33.472 170.84,33.458 				"/>
			</g>
			<g>
				<path fill="#262B56" d="M182.666,52.976c-1.273-1.506-2.521-3.151-3.706-4.948c-0.063-0.093-0.124-0.182-0.187-0.274
					c0,0-1.813-2.343-3.984-6.146c-0.445-0.778-0.904-1.619-1.367-2.516c-0.322-0.622-0.646-1.271-0.965-1.944
					c-0.4-0.84-0.794-1.713-1.178-2.622c-0.146-0.348-0.292-0.694-0.435-1.053l-0.008-0.012l-1.009,1.985l-0.318,0.627l-1.282-1.887
					l-1.45-2.134l-1.22-1.792l-5.629-8.274l-10.563-1.391l-1.883-0.248l2.701-18.18l1.341,1.937l17.146,24.762l3.501-6.57
					L151.784,2.129L149.632,0l-4.668,22.295l13.604,1.656l4.012,7.919c-1.849,1.295-3.388,2.996-4.479,4.981
					c-0.532-0.076-1.071-0.13-1.625-0.13c-6.24,0-11.299,5.06-11.299,11.301c0,5.989,4.664,10.876,10.558,11.261l0.028,0.036h0.713
					h26.394h6.149C186.935,57.563,184.766,55.458,182.666,52.976z"/>
				<polygon fill="#262B56" points="171.606,31.946 171.122,32.898 171.123,32.899 				"/>
			</g>
			<polygon fill="#FFFFFF" points="178.668,17.275 151.918,1.105 151.784,2.129 172.173,22.295 168.672,28.865 151.525,4.104 
				149.365,20.596 159.93,21.986 165.559,30.261 166.778,32.053 168.229,34.187 169.511,36.073 169.829,35.446 170.838,33.46 
				170.84,33.458 171.025,33.091 171.123,32.899 171.606,31.946 172.931,29.338 175.581,24.117 190.659,25.906 193.505,26.244 			
				"/>
		</g>
		<path opacity="0.3" fill="#262B56" enable-background="new    " d="M190.659,25.906l-15.078-1.789l-2.65,5.221l-1.324,2.607
			l-0.482,0.953c0.408,0.516,0.938,1.165,1.591,1.921l0.373-0.736l2.157-4.263l1.654-3.269l17.08,1.625L190.659,25.906z"/>
	</g>
</g>
</svg>
