<svg xmlns="http://www.w3.org/2000/svg" xmlns:xlink="http://www.w3.org/1999/xlink" viewBox="0 0 1899 1129.8">
  <defs>
    <style>
      .cls-1 {
        fill: none;
      }

      .cls-2 {
        isolation: isolate;
      }

      .cls-3 {
        clip-path: url(#clip-path);
      }

      .cls-4, .cls-6 {
        fill: #262b56;
        mix-blend-mode: multiply;
      }

      .cls-4 {
        opacity: 0.12;
      }

      .cls-5 {
        clip-path: url(#clip-path-2);
      }

      .cls-6 {
        opacity: 0.08;
      }
    </style>
    <clipPath id="clip-path">
      <rect class="cls-1" x="189.2" y="1615.4" width="1899" height="128.72"/>
    </clipPath>
    <clipPath id="clip-path-2">
      <rect class="cls-1" width="1899" height="1129.76"/>
    </clipPath>
  </defs>
  <title>login-and-another</title>
  <g class="cls-2">
    <g id="Layer_1" data-name="Layer 1">
      <g class="cls-3">
        <path class="cls-4" d="M1580.1,1626.9c-128.8,0-306.7,91.3-408.5,150.5-19.7-217.3-12.3-358-6.1-430.8,0-.5.6-.7,1-.5,62.9,39.7,45.3,150.6,32.1,182.3-.3.7.7,1.1,1.1.6,78.5-92.9,40.2-195.4,24-221.4-.3-.5.5-1.1,1-.7,70.2,57.1,67.2,132.8,63.3,175.2a.6.6,0,0,0,1.2.4c28.5-56.2,37.2-151.2-50.2-228.3a.6.6,0,0,1,.5-1.1c78.2,18.9,109.8,93,110.5,148.4v2.8a.6.6,0,0,0,1.2.1c11.3-41.4,8.8-75-1.2-102-22.7-60.9-84-87.5-113.8-91.2-.8-.1-.6-1.1.1-1.2,58.2-5.5,93.5,12.7,113.7,30.5,12.4,11,19.2,21.8,21.8,26.9a.7.7,0,0,0,1.2-.4,100.8,100.8,0,0,0-23-55.6c-34.6-41.1-99.4-52.7-141.3-35a.6.6,0,0,1-.7-.9c27.1-39,81.2-43.1,110-29.4a.6.6,0,0,0,.7-1c-43-49.3-113.6-50.4-151.3,6.7a.7.7,0,0,1-1.1,0,255.7,255.7,0,0,1-11.7-24c-8.1-18.6-11.7-39.5-15.1-60.4a.8.8,0,0,0-1.6,0c-3.5,20.9-7,41.8-15.1,60.4-3.8,8.6-7.7,16.7-11.8,24a.6.6,0,0,1-1,0c-37.7-57.1-108.3-56-151.3-6.7-.5.5.1,1.2.7,1,28.7-13.7,82.9-9.6,110,29.4a.6.6,0,0,1-.7.9c-41.9-17.7-106.7-6.1-141.2,35-12.5,14.7-20.9,33.3-23.1,55.6-.1.6.9,1,1.1.4,2.7-5.1,9.5-15.9,22-26.9,20.1-17.8,55.4-36,113.6-30.5.7.1.9,1.1.2,1.2-29.9,3.7-91.2,30.3-113.8,91.2-10.1,27-12.6,60.6-1.3,102,.1.7,1.2.6,1.1-.1a24.6,24.6,0,0,1,.2-2.8c.5-55.4,32.2-129.5,110.4-148.4a.6.6,0,0,1,.5,1.1c-87.5,77.1-78.8,172.1-50.2,228.3a.6.6,0,0,0,1.1-.4c-3.7-42.4-6.8-118.1,63.3-175.2.5-.4,1.4.2,1.1.7-16.2,26-54.5,128.5,23.9,221.4a.7.7,0,0,0,1.2-.6c-13.2-31.7-30.9-142.6,32.1-182.3a.7.7,0,0,1,1,.5c6.1,72.8,13.6,213.5-6.2,430.8-101.8-59.2-279.6-150.5-408.4-150.5-39.6,0-72.7,10.6-70.6,10.9,170.3,26.9,372,145.3,456.8,199.1-54.7,34.2-230,142.6-251,142.6-10.7,0-12.1-12.8-21.2-12.8s-8.1,5.9-8.1,8.3c0,36.5,49.7,60.1,89.8,41.2l245.7-142,245.6,142c40.2,18.9,89.9-4.7,89.9-41.2,0-2.4,0-8.3-8.2-8.3s-10.5,12.8-21.2,12.8c-21,0-196.3-108.4-251-142.6,84.8-53.8,286.5-172.2,456.8-199.1,2.2-.3-30.9-10.9-70.5-10.9"/>
      </g>
      <g class="cls-5">
        <path class="cls-6" d="M1541.7,661.9c-172.7,0-411.4,107.8-548,177.7-26.4-256.7-16.5-422.9-8.2-509,0-.6.8-.8,1.3-.6,84.5,47,60.8,178,43.1,215.5-.4.8.9,1.3,1.5.7,105.3-109.8,53.9-230.9,32.2-261.6-.4-.7.7-1.4,1.4-.9,94.1,67.5,90,157,84.9,207.1-.1.8,1.2,1.1,1.6.4,38.3-66.4,49.9-178.7-67.4-269.8-.7-.4-.1-1.4.7-1.3,104.8,22.4,147.3,110,148.2,175.4,0,1.1.1,2.2.1,3.3s1.4.9,1.6.1c15.1-48.9,11.7-88.6-1.7-120.4-30.4-72-112.7-103.5-152.7-107.8-1-.1-.8-1.4.1-1.5,78.2-6.4,125.5,15,152.6,36.1,16.7,12.9,25.7,25.8,29.3,31.7.5.8,1.7.3,1.6-.4-2.9-26.4-14.4-48.3-30.9-65.7-46.3-48.6-133.3-62.2-189.5-41.4-.8.3-1.5-.4-1-1.1,36.4-46,109-50.8,147.6-34.7.8.3,1.5-.5,1-1.1C1133.4,34.3,1038.6,33,988,100.5a1,1,0,0,1-1.4,0,278.9,278.9,0,0,1-15.7-28.3c-10.8-22-15.7-46.8-20.3-71.4a1.1,1.1,0,0,0-2.1,0c-4.7,24.6-9.5,49.4-20.3,71.4a299.9,299.9,0,0,1-15.8,28.3,1,1,0,0,1-1.4,0C860.5,33,765.7,34.3,708,92.6c-.6.6.2,1.4,1,1.1,38.5-16.1,111.2-11.3,147.5,34.7a.7.7,0,0,1-.9,1.1c-56.3-20.8-143.2-7.2-189.5,41.4-16.6,17.4-28,39.3-31,65.7,0,.7,1.2,1.2,1.6.4,3.6-5.9,12.7-18.8,29.4-31.7,27.1-21.1,74.4-42.5,152.5-36.1,1,.1,1.1,1.4.2,1.5-40.1,4.3-122.3,35.8-152.7,107.8-13.5,31.8-16.8,71.5-1.7,120.4.2.8,1.6.8,1.5-.1s.1-2.2.2-3.3c.8-65.4,43.2-153,148.1-175.4.9-.1,1.4.9.8,1.3-117.4,91.1-105.7,203.4-67.4,269.8.4.7,1.6.4,1.5-.4-5-50.1-9.2-139.6,85-207.1.7-.5,1.8.2,1.4.9-21.7,30.7-73.2,151.8,32.1,261.6.6.6,1.9.1,1.6-.7C851.4,508,827.7,377,912.2,330c.6-.2,1.3,0,1.4.6,8.2,86.1,18.2,252.3-8.3,509C768.7,769.7,530.1,661.9,357.4,661.9c-53.2,0-97.6,12.5-94.7,12.9,228.4,31.7,499,171.7,612.8,235.2-73.4,40.4-308.6,168.5-336.7,168.5-14.4,0-16.4-15.2-28.5-15.2s-10.9,7-10.9,9.9c0,43.1,66.7,71,120.5,48.7L949.5,954.1l329.6,167.8c53.8,22.3,120.5-5.6,120.5-48.7,0-2.9,0-9.9-10.9-9.9s-14.1,15.2-28.4,15.2c-28.2,0-263.4-128.1-336.8-168.5,113.8-63.5,384.4-203.5,612.8-235.2,3-.4-41.4-12.9-94.6-12.9"/>
      </g>
    </g>
  </g>
</svg>
