<?xml version="1.0" encoding="utf-8"?>
<!-- Generator: Adobe Illustrator 16.0.0, SVG Export Plug-In . SVG Version: 6.00 Build 0)  -->
<!DOCTYPE svg PUBLIC "-//W3C//DTD SVG 1.1//EN" "http://www.w3.org/Graphics/SVG/1.1/DTD/svg11.dtd">
<svg version="1.1" id="Layer_1" xmlns="http://www.w3.org/2000/svg" xmlns:xlink="http://www.w3.org/1999/xlink" x="0px" y="0px"
	 width="218.594px" height="62.112px" viewBox="0 0 218.594 62.112" enable-background="new 0 0 218.594 62.112"
	 xml:space="preserve">
<g>
	<g>
		<g>
			<polygon fill="none" points="150.185,2.168 147.483,20.348 149.365,20.596 151.525,4.104 			"/>
			<g>
				<path fill="#27A8E0" d="M205.09,32.203c-0.234,0-0.463,0.023-0.695,0.035c-0.184-9.462-7.896-17.078-17.401-17.078
					c-1.343,0-2.646,0.167-3.901,0.454L151.918,1.105l26.75,16.17l14.837,8.969l-2.846-0.338l-15.078-1.789l-2.65,5.221
					l-1.324,2.608l-0.483,0.953c0.408,0.515,0.939,1.165,1.591,1.921c0.534,0.62,1.147,1.308,1.838,2.05
					c0.137,0.147,0.276,0.296,0.419,0.446c0.396,0.418,0.812,0.849,1.253,1.294c0.771,0.776,1.611,1.589,2.517,2.422
					c1.959,1.803,4.226,3.701,6.783,5.545c1.477,1.065,3.05,2.111,4.714,3.109c0.804,0.482,1.63,0.951,2.477,1.407
					c0.07,0.038,0.139,0.077,0.209,0.115c0,0,5.462,3.718,11.664,5.696c1.939,0.619,3.95,1.068,5.89,1.18
					c4.775-2.081,8.117-6.838,8.117-12.38C218.594,38.248,212.547,32.203,205.09,32.203z"/>
				<polygon fill="#27A8E0" points="170.838,33.46 170.846,33.472 170.84,33.458 				"/>
			</g>
			<g>
				<path fill="#262B56" d="M182.666,52.976c-1.273-1.506-2.52-3.152-3.706-4.948c-0.062-0.093-0.124-0.182-0.186-0.275
					c0,0-1.813-2.343-3.985-6.146c-0.445-0.779-0.904-1.619-1.367-2.516c-0.322-0.622-0.645-1.271-0.965-1.944
					c-0.4-0.84-0.794-1.713-1.177-2.622c-0.146-0.348-0.292-0.695-0.435-1.053l-0.008-0.012l-1.009,1.986l-0.318,0.626l-1.282-1.886
					l-1.45-2.134l-1.22-1.792l-5.629-8.274l-10.564-1.391l-1.882-0.248l2.701-18.18l1.341,1.937l17.146,24.761l3.501-6.57
					L151.784,2.129L149.632,0l-4.668,22.295l13.605,1.656l4.011,7.919c-1.848,1.295-3.387,2.996-4.479,4.982
					c-0.532-0.076-1.071-0.13-1.625-0.13c-6.24,0-11.299,5.059-11.299,11.301c0,5.989,4.664,10.876,10.558,11.26l0.028,0.037h0.713
					h26.393h6.15C186.935,57.563,184.766,55.458,182.666,52.976z"/>
				<polygon fill="#262B56" points="171.606,31.946 171.122,32.898 171.123,32.899 				"/>
			</g>
			<polygon fill="#FFFFFF" points="178.668,17.275 151.918,1.105 151.784,2.129 172.173,22.295 168.672,28.865 151.525,4.104 
				149.365,20.596 159.93,21.986 165.559,30.261 166.778,32.053 168.229,34.187 169.511,36.072 169.829,35.446 170.838,33.46 
				170.84,33.458 171.025,33.091 171.123,32.899 171.606,31.946 172.931,29.338 175.581,24.117 190.659,25.906 193.505,26.244 			
				"/>
		</g>
		<path opacity="0.3" fill="#262B56" d="M190.659,25.906l-15.078-1.789l-2.65,5.221l-1.324,2.608l-0.483,0.953
			c0.408,0.515,0.939,1.165,1.591,1.921l0.373-0.737l2.157-4.262l1.655-3.269l17.08,1.625L190.659,25.906z"/>
	</g>
	<g>
		<g>
			<path fill="#262B56" d="M26.709,8.714v19.188H11.397c-3.838,0-6.696-0.665-8.577-1.996C0.94,24.575,0,22.517,0,19.728
				c0-1.382,0.269-3.352,0.806-5.91l0.192-0.959l4.105,0.768l-0.191,0.92c-0.23,1.203-0.41,2.188-0.537,2.955
				c-0.129,0.768-0.192,1.523-0.192,2.265c0,1.075,0.211,1.925,0.634,2.552c0.422,0.627,1.157,1.088,2.206,1.382
				s2.507,0.441,4.375,0.441h11.129V8.714H26.709z M7.982,4.185h4.183v4.452H7.982V4.185z M14.544,4.185h4.184v4.452h-4.184V4.185z"
				/>
			<path fill="#262B56" d="M57.582,24.62c0.115,0.32,0.173,0.787,0.173,1.4c0,0.614-0.058,1.082-0.173,1.401
				s-0.313,0.479-0.595,0.479H31.122v-3.761h5.833V6.027h4.183v18.113h7.292V0.731h4.183v23.409h4.375
				C57.269,24.141,57.467,24.301,57.582,24.62z"/>
			<path fill="#262B56" d="M87.842,17.271v10.63h-9.479c-1.356,0-2.674-0.396-3.952-1.189c-1.126,0.793-2.661,1.189-4.605,1.189
				H56.987c-0.307,0-0.512-0.153-0.614-0.461c-0.102-0.307-0.153-0.779-0.153-1.42c0-0.639,0.052-1.112,0.153-1.42
				c0.103-0.307,0.308-0.46,0.614-0.46h4.989V10.632h4.183v13.509h3.646c0.845,0,1.471-0.121,1.881-0.364
				c0.408-0.243,0.69-0.723,0.844-1.439c0.153-0.716,0.23-1.829,0.23-3.339v-8.366h4.183v8.366c0,1.714-0.153,3.173-0.46,4.375
				c0.639,0.513,1.267,0.768,1.88,0.768h5.296v-6.869c0-0.589-0.103-1.644-0.307-3.166c-0.205-1.522-0.461-3.103-0.768-4.739
				l4.145-0.652C87.471,13.114,87.842,15.966,87.842,17.271z"/>
			<path fill="#262B56" d="M94.173,0.731h4.183v27.17h-4.183V0.731z"/>
			<path fill="#262B56" d="M114.607,24.62c0.115,0.32,0.173,0.787,0.173,1.4c0,0.614-0.058,1.082-0.173,1.401
				s-0.313,0.479-0.595,0.479H109.6v1.611c0,1.561-0.295,2.936-0.883,4.126c-0.589,1.189-1.414,2.11-2.476,2.763
				s-2.283,0.979-3.665,0.979c-0.512,0-1.228-0.051-2.148-0.153l0.499-3.761c1.022,0.102,1.573,0.153,1.649,0.153
				c0.87,0,1.561-0.352,2.072-1.056c0.512-0.703,0.768-1.721,0.768-3.051V8.714h4.184v15.427h4.413
				C114.294,24.141,114.492,24.301,114.607,24.62z"/>
			<path fill="#262B56" d="M134.16,10.978c1.637,1.51,2.456,4.018,2.456,7.521v9.402h-22.604c-0.307,0-0.512-0.153-0.614-0.461
				c-0.102-0.307-0.153-0.779-0.153-1.42c0-0.639,0.052-1.112,0.153-1.42c0.103-0.307,0.308-0.46,0.614-0.46h4.721
				c-0.257-1.612-0.384-3.364-0.384-5.258c0-1.688,0.114-3.364,0.345-5.026c0.23-1.664,0.486-3.032,0.768-4.107
				c0.665-0.255,1.644-0.492,2.936-0.709s2.667-0.326,4.126-0.326C129.977,8.714,132.522,9.468,134.16,10.978z M132.433,24.141
				v-5.642c0-1.637-0.166-2.878-0.498-3.723c-0.333-0.844-0.915-1.438-1.746-1.784c-0.832-0.345-2.054-0.519-3.665-0.519
				c-1.101,0-2.252,0.091-3.454,0.27c-0.358,2.2-0.537,4.247-0.537,6.14c0,1.562,0.128,3.313,0.384,5.258H132.433z"/>
		</g>
		<g>
			<g>
				<path fill="#27A8E0" d="M0.329,46.14h4.452L8.27,58.394l3.488-12.254h4.475v15.72h-2.57V48.985h-0.345L9.601,61.217H6.938
					L3.244,48.985H2.899v12.874h-2.57V46.14z"/>
				<path fill="#27A8E0" d="M23.553,61.229c-0.933-0.589-1.595-1.469-1.984-2.64c-0.391-1.17-0.586-2.673-0.586-4.509
					s0.199-3.351,0.597-4.544c0.398-1.193,1.063-2.1,1.997-2.719c0.933-0.619,2.203-0.93,3.809-0.93c1.606,0,2.876,0.311,3.81,0.93
					s1.595,1.525,1.985,2.719c0.39,1.193,0.585,2.708,0.585,4.544c0,1.851-0.195,3.358-0.585,4.521
					c-0.391,1.163-1.052,2.039-1.985,2.628s-2.203,0.884-3.81,0.884C25.764,62.112,24.486,61.817,23.553,61.229z M29.68,59.255
					c0.536-0.405,0.907-1.018,1.113-1.836s0.31-1.932,0.31-3.339c0-1.377-0.104-2.489-0.31-3.339s-0.582-1.495-1.124-1.939
					c-0.544-0.443-1.305-0.665-2.284-0.665c-0.994,0-1.759,0.218-2.294,0.653c-0.536,0.437-0.911,1.083-1.125,1.939
					c-0.214,0.857-0.321,1.974-0.321,3.351c0,1.392,0.104,2.497,0.31,3.315c0.207,0.819,0.582,1.435,1.125,1.848
					s1.312,0.619,2.306,0.619C28.38,59.862,29.145,59.66,29.68,59.255z"/>
				<path fill="#27A8E0" d="M38.56,46.14h5.967c1.759,0,3.087,0.406,3.981,1.217s1.343,2.073,1.343,3.786
					c0,1.102-0.219,2.035-0.654,2.8c-0.437,0.766-1.067,1.346-1.894,1.744l2.57,6.173h-2.822l-2.249-5.599H41.13v5.599h-2.57V46.14z
					 M44.572,54.058c0.902,0,1.568-0.264,1.996-0.792c0.429-0.528,0.643-1.228,0.643-2.101c0-0.902-0.226-1.594-0.677-2.076
					s-1.121-0.723-2.008-0.723H41.13v5.691H44.572z"/>
				<path fill="#27A8E0" d="M56.919,46.14h5.117l3.878,15.72h-2.593l-0.826-3.351h-6.013l-0.849,3.351h-2.57L56.919,46.14z
					 M61.99,56.237l-1.928-7.939h-1.147l-1.928,7.939H61.99z"/>
				<path fill="#27A8E0" d="M71.846,61.917c-0.956-0.13-1.854-0.271-2.696-0.425l0.253-2.042c2.188,0.26,3.764,0.39,4.728,0.39
					c1.896,0,2.845-0.833,2.845-2.501c0-0.443-0.092-0.799-0.275-1.067c-0.184-0.268-0.493-0.497-0.929-0.688
					c-0.437-0.191-1.075-0.394-1.916-0.607c-1.193-0.307-2.139-0.643-2.834-1.01c-0.696-0.367-1.209-0.834-1.538-1.4
					c-0.329-0.565-0.493-1.3-0.493-2.203c0-1.529,0.463-2.662,1.389-3.396c0.925-0.734,2.206-1.102,3.844-1.102
					c0.657,0,1.46,0.059,2.409,0.173c0.948,0.114,1.805,0.241,2.57,0.378l-0.207,2.089c-2.233-0.261-3.748-0.39-4.543-0.39
					c-1.928,0-2.892,0.688-2.892,2.064c0,0.475,0.104,0.85,0.31,1.125s0.539,0.504,0.998,0.688s1.193,0.422,2.203,0.712
					c1.162,0.321,2.058,0.654,2.685,0.999c0.628,0.344,1.082,0.787,1.365,1.33s0.425,1.259,0.425,2.146
					c0,1.651-0.471,2.887-1.411,3.705s-2.223,1.229-3.844,1.229C73.617,62.112,72.802,62.046,71.846,61.917z"/>
				<path fill="#27A8E0" d="M86.43,46.14h5.117l3.878,15.72h-2.593l-0.826-3.351h-6.013l-0.849,3.351h-2.57L86.43,46.14z
					 M91.501,56.237l-1.928-7.939h-1.147l-1.928,7.939H91.501z"/>
				<path fill="#27A8E0" d="M99.51,46.14h2.57v13.425h6.242v2.295H99.51V46.14z"/>
				<path fill="#27A8E0" d="M114.747,46.14h5.117l3.878,15.72h-2.593l-0.826-3.351h-6.013l-0.849,3.351h-2.57L114.747,46.14z
					 M119.818,56.237l-1.928-7.939h-1.147l-1.928,7.939H119.818z"/>
				<path fill="#27A8E0" d="M129.847,48.435h-4.476V46.14h11.475v2.295h-4.43v13.425h-2.569V48.435z"/>
			</g>
		</g>
	</g>
</g>
</svg>
