<svg id="Layer_1" data-name="Layer 1" xmlns="http://www.w3.org/2000/svg" viewBox="0 0 34 50.1">
  <defs>
    <style>
      .cls-1 {
        fill: #be1e2d;
      }

      .cls-2 {
        fill: #262b56;
      }
    </style>
  </defs>
  <title>vip-2-03</title>
  <g>
    <polygon class="cls-1" points="1 20.1 33.3 20.7 31.4 31.6 28.9 37.7 24.5 43.9 17.1 47.9 12.7 46.6 6.9 40.2 2 30.4 1 20.1"/>
    <polygon class="cls-2" points="3.2 20.5 2 9.2 8.7 15.3 16.8 2.7 23.7 14.7 24.7 14.8 30.9 9.5 30.2 17.9 29.8 20.1 3.2 20.5"/>
    <g>
      <polygon class="cls-1" points="3.1 11.2 9.7 17.1 16.8 4.3 23.9 17.1 30.6 11.2 29 20.7 31 20.7 32.6 6.6 24.5 13.9 16.8 0 9.2 13.9 1 6.6 2.6 20.7 4.7 20.7 3.1 11.2"/>
      <path class="cls-2" d="M33.9,19.1H.1s-2,21.5,16.9,31C35.9,40.6,33.9,19.1,33.9,19.1ZM17,47.4C.3,39,2,21.6,2,21.6H32S33.7,39,17,47.4Z"/>
    </g>
  </g>
</svg>
