<?xml version="1.0" encoding="utf-8"?>
<!-- Generator: Adobe Illustrator 16.0.0, SVG Export Plug-In . SVG Version: 6.00 Build 0)  -->
<!DOCTYPE svg PUBLIC "-//W3C//DTD SVG 1.1//EN" "http://www.w3.org/Graphics/SVG/1.1/DTD/svg11.dtd">
<svg version="1.1" id="Layer_1" xmlns="http://www.w3.org/2000/svg" xmlns:xlink="http://www.w3.org/1999/xlink" x="0px" y="0px"
	 width="33.998px" height="50.064px" viewBox="0 0 33.998 50.064" enable-background="new 0 0 33.998 50.064" xml:space="preserve">
<g>
	<polygon fill="#27A8E0" points="1.027,20.092 33.257,20.723 31.382,31.629 28.858,37.686 24.46,43.887 17.142,47.924 
		12.707,46.553 6.938,40.209 1.964,30.402 	"/>
	<polygon fill="#262B56" points="3.189,20.502 1.964,9.203 8.741,15.26 16.823,2.715 23.739,14.684 24.749,14.756 30.877,9.492 
		30.156,17.855 29.796,20.092 	"/>
	<g>
		<g>
			<g>
				<polygon fill="#27A8E0" points="3.087,11.193 9.717,17.115 16.822,4.258 23.929,17.115 30.558,11.193 28.958,20.723 
					31.017,20.723 32.617,6.59 24.481,13.857 16.822,0 9.163,13.857 1.027,6.59 2.627,20.723 4.687,20.723 				"/>
			</g>
		</g>
		<g>
			<path fill="#262B56" d="M33.943,19.092H16.999H0.056c0,0-1.92,21.521,16.943,30.973C35.862,40.613,33.943,19.092,33.943,19.092z
				 M16.999,47.424C0.257,39.037,1.96,21.557,1.96,21.557h15.039h15.04C32.039,21.557,33.741,39.037,16.999,47.424z"/>
		</g>
	</g>
</g>
</svg>
