<?xml version="1.0" encoding="utf-8"?>
<!-- Generator: Adobe Illustrator 16.0.0, SVG Export Plug-In . SVG Version: 6.00 Build 0)  -->
<!DOCTYPE svg PUBLIC "-//W3C//DTD SVG 1.1//EN" "http://www.w3.org/Graphics/SVG/1.1/DTD/svg11.dtd">
<svg version="1.1" id="Layer_1" xmlns="http://www.w3.org/2000/svg" xmlns:xlink="http://www.w3.org/1999/xlink" x="0px" y="0px"
	 width="32px" height="32px" viewBox="0 0 32 32" enable-background="new 0 0 32 32" xml:space="preserve">
<g>
	<path fill="#333738" d="M30.413,9.707H1.573C1.227,9.702,0.893,9.84,0.65,10.089c-0.251,0.237-0.392,0.567-0.388,0.913v19.432
		c0,0.354,0.127,0.655,0.388,0.909c0.261,0.259,0.566,0.39,0.923,0.39h28.84c0.356,0,0.662-0.129,0.922-0.39
		c0.251-0.233,0.392-0.563,0.388-0.909V11.002c0-0.352-0.127-0.654-0.388-0.911C31.093,9.842,30.762,9.703,30.413,9.707z
		 M19.536,15.799c-0.242,0.248-0.574,0.389-0.923,0.384h-5.242c-0.347,0.005-0.68-0.136-0.921-0.384
		c-0.251-0.234-0.393-0.564-0.39-0.909c-0.002-0.346,0.139-0.676,0.39-0.911c0.241-0.25,0.574-0.39,0.921-0.387h5.245
		c0.353,0,0.661,0.127,0.922,0.387c0.249,0.235,0.392,0.565,0.388,0.911C19.93,15.233,19.787,15.563,19.536,15.799z"/>
	<path fill="#A99465" d="M31.648,0.632c-0.219-0.233-0.521-0.365-0.84-0.363H1.191c-0.318-0.002-0.623,0.13-0.838,0.363
		C0.124,0.859-0.004,1.169,0,1.491v4.896c0,0.331,0.116,0.617,0.354,0.859C0.59,7.487,0.868,7.61,1.192,7.61h29.617
		c0.318,0.002,0.623-0.131,0.84-0.364C31.876,7.02,32.004,6.709,32,6.387V1.491c0.004-0.322-0.124-0.634-0.352-0.861V0.632z"/>
</g>
</svg>
