<?xml version="1.0" encoding="utf-8"?>
<!-- Generator: Adobe Illustrator 16.0.0, SVG Export Plug-In . SVG Version: 6.00 Build 0)  -->
<!DOCTYPE svg PUBLIC "-//W3C//DTD SVG 1.1//EN" "http://www.w3.org/Graphics/SVG/1.1/DTD/svg11.dtd">
<svg version="1.1" id="Layer_1" xmlns="http://www.w3.org/2000/svg" xmlns:xlink="http://www.w3.org/1999/xlink" x="0px" y="0px"
	 width="32px" height="32px" viewBox="0 0 32 32" enable-background="new 0 0 32 32" xml:space="preserve">
<path fill="#333738" d="M30.885,11.735l-0.035-0.036c-0.393-0.39-1.078-0.387-1.469,0.009L13.069,28.15
	c-1.119,1.129-2.612,1.75-4.22,1.75c-1.565,0-3.092-0.639-4.19-1.75c-1.108-1.118-1.74-2.662-1.733-4.24
	c-0.008-1.573,0.624-3.117,1.733-4.236L20.973,3.229c0.707-0.713,1.639-1.106,2.625-1.106c1.106,0,2.194,0.482,3.063,1.356
	c1.692,1.705,1.799,4.172,0.248,5.737L11.577,24.667c-0.33,0.328-0.766,0.509-1.23,0.509c-0.468,0-0.907-0.183-1.238-0.516
	c-0.68-0.688-0.68-1.809,0-2.5L19.488,11.7c0.404-0.407,0.408-1.066,0.011-1.476l-0.036-0.038c-0.396-0.374-1.068-0.362-1.453,0.027
	L7.63,20.678c-1.487,1.51-1.487,3.963,0,5.473c0.725,0.731,1.69,1.135,2.717,1.135c1.027,0,1.992-0.402,2.716-1.135l15.324-15.449
	c2.393-2.413,2.285-6.157-0.246-8.71C26.869,0.707,25.256,0,23.6,0c-1.535,0-2.994,0.618-4.105,1.74L3.181,18.182
	c-1.513,1.525-2.346,3.56-2.346,5.727c-0.009,2.13,0.845,4.218,2.345,5.728C4.663,31.139,6.725,32,8.839,32v-0.148l0,0l0,0l0,0
	L8.89,32c2.111,0,4.173-0.861,5.655-2.365l16.313-16.442C31.258,12.792,31.268,12.146,30.885,11.735z"/>
</svg>
