<?xml version="1.0" encoding="utf-8"?>
<!-- Generator: Adobe Illustrator 16.0.0, SVG Export Plug-In . SVG Version: 6.00 Build 0)  -->
<!DOCTYPE svg PUBLIC "-//W3C//DTD SVG 1.1//EN" "http://www.w3.org/Graphics/SVG/1.1/DTD/svg11.dtd">
<svg version="1.1" id="Layer_1" xmlns="http://www.w3.org/2000/svg" xmlns:xlink="http://www.w3.org/1999/xlink" x="0px" y="0px"
	 width="32px" height="32px" viewBox="0 0 32 32" enable-background="new 0 0 32 32" xml:space="preserve">
<g>
	<path fill="#333738" d="M22.865,32H9.134c-2.729,0-4.948-2.22-4.948-4.947V4.948C4.186,2.219,6.404,0,9.134,0h13.731
		c2.729,0,4.949,2.219,4.949,4.948v22.104C27.814,29.78,25.594,32,22.865,32z M9.134,1.533c-1.883,0-3.415,1.532-3.415,3.415v22.104
		c0,1.884,1.532,3.415,3.415,3.415h13.731c1.883,0,3.416-1.531,3.416-3.415V4.948c0-1.883-1.533-3.415-3.416-3.415H9.134z"/>
	<path fill="#A99465" d="M22.55,10.378c-0.79-0.815-1.849-1.264-2.983-1.264c-1.082,0-2.107,0.416-2.887,1.167
		c-0.029,0.028-0.059,0.057-0.097,0.096l-6.654,6.729c-1.295,1.338-1.295,3.435,0,4.771c0.619,0.639,1.45,0.989,2.339,0.989
		c0.852,0,1.658-0.326,2.271-0.921l6.721-6.793c0.941-0.969,0.941-2.486,0.002-3.454c-0.449-0.462-1.051-0.716-1.693-0.716
		c-0.615,0-1.198,0.237-1.641,0.667c-0.015,0.014-0.031,0.03-0.052,0.049l-5.004,5.116c-0.219,0.228-0.219,0.594,0,0.818
		c0.208,0.213,0.565,0.229,0.804,0l5.004-5.12c0.235-0.243,0.553-0.377,0.891-0.377c0.322,0,0.629,0.125,0.854,0.343
		c0.013,0.013,0.026,0.026,0.034,0.033c0.494,0.511,0.494,1.312,0.001,1.823l-6.66,6.728c-0.405,0.418-0.95,0.647-1.533,0.647
		c-0.557,0-1.084-0.213-1.479-0.593c-0.02-0.022-0.039-0.041-0.054-0.057c-0.855-0.881-0.855-2.264,0-3.144l6.594-6.664
		c0.574-0.595,1.348-0.922,2.176-0.922c0.792,0,1.541,0.304,2.107,0.854l0.027,0.025c0.014,0.014,0.027,0.028,0.043,0.043
		c1.215,1.251,1.215,3.211,0,4.462l-4.94,5.055c-0.222,0.229-0.222,0.588,0.001,0.815c0.205,0.213,0.572,0.22,0.785,0.019
		l5.021-5.136C24.211,14.761,24.21,12.084,22.55,10.378z"/>
</g>
</svg>
