<?xml version="1.0" encoding="utf-8"?>
<!-- Generator: Adobe Illustrator 16.0.0, SVG Export Plug-In . SVG Version: 6.00 Build 0)  -->
<!DOCTYPE svg PUBLIC "-//W3C//DTD SVG 1.1//EN" "http://www.w3.org/Graphics/SVG/1.1/DTD/svg11.dtd">
<svg version="1.1" id="Layer_1" xmlns="http://www.w3.org/2000/svg" xmlns:xlink="http://www.w3.org/1999/xlink" x="0px" y="0px"
	 width="595.279px" height="841.891px" viewBox="0 0 595.279 841.891" enable-background="new 0 0 595.279 841.891"
	 xml:space="preserve">
<g>
	<rect x="353.448" y="346.535" fill="#A99465" width="91.152" height="232.531"/>
	<rect x="152.54" y="446.988" fill="#A99465" width="91.152" height="132.078"/>
	<g>
		<path fill="#333738" d="M580.398,659.058H14.882C7.441,659.058,0,666.498,0,673.939c0,7.44,5.58,14.882,14.882,14.882h567.376
			c7.441,0,14.882-7.441,14.882-14.882C597.14,666.498,589.699,659.058,580.398,659.058L580.398,659.058z M550.634,220.038H450.181
			c-7.441,0-14.883,5.581-14.883,14.882l0,0v96.733h-72.55V167.951c0-7.441-7.44-14.882-14.882-14.882l0,0H245.553
			c-7.44,0-14.882,5.581-14.882,14.882l0,0v267.876h-70.689V314.911c0-7.441-7.441-14.882-14.882-14.882l0,0H44.646
			c-7.44,0-14.882,5.581-14.882,14.882l0,0v271.597c0,7.44,7.441,14.882,14.882,14.882l0,0h505.988
			c7.441,0,14.882-5.581,14.882-14.882l0,0V234.92C565.516,225.619,558.075,220.038,550.634,220.038L550.634,220.038z
			 M130.218,571.625h-70.69V327.933h70.69V571.625z M232.531,571.625h-72.55V463.73h72.55V571.625L232.531,571.625z
			 M332.985,344.675v226.95h-72.55V180.973h72.55V344.675z M435.298,571.625h-72.55V357.696h72.55V571.625z M535.752,571.625
			h-70.689V247.942h72.55v323.683H535.752z"/>
	</g>
</g>
</svg>
