<?xml version="1.0" encoding="utf-8"?>
<!-- Generator: Adobe Illustrator 16.0.0, SVG Export Plug-In . SVG Version: 6.00 Build 0)  -->
<!DOCTYPE svg PUBLIC "-//W3C//DTD SVG 1.1//EN" "http://www.w3.org/Graphics/SVG/1.1/DTD/svg11.dtd">
<svg version="1.1" id="Layer_1" xmlns="http://www.w3.org/2000/svg" xmlns:xlink="http://www.w3.org/1999/xlink" x="0px" y="0px"
	 width="32px" height="32px" viewBox="0 0 32 32" enable-background="new 0 0 32 32" xml:space="preserve">
<rect x="2.25" y="4.125" fill="#A99465" width="27.625" height="5.542"/>
<g>
	<path fill="#333738" d="M28.25,2.5h-1.499V0h-2.5v2.5H7.748V0H5.25v2.5h-1.5C1.68,2.501,0.003,4.178,0,6.248v22
		C0,30.316,1.682,32,3.75,32h24.5c2.07-0.002,3.75-1.68,3.75-3.752v-22C31.996,4.178,30.32,2.501,28.25,2.5z M29.5,28.248
		c0,0.691-0.563,1.25-1.25,1.25H3.75c-0.69,0-1.249-0.559-1.25-1.25V11.75h27V28.248z M29.5,9.25h-27V6.248
		C2.5,5.559,3.062,5,3.75,5h1.5v2.498h2.5V5h16.501v2.498h2.5V5h1.499c0.688,0,1.25,0.561,1.25,1.248V9.25L29.5,9.25z"/>
</g>
</svg>
