<?xml version="1.0" encoding="utf-8"?>
<!-- Generator: Adobe Illustrator 16.0.0, SVG Export Plug-In . SVG Version: 6.00 Build 0)  -->
<!DOCTYPE svg PUBLIC "-//W3C//DTD SVG 1.1//EN" "http://www.w3.org/Graphics/SVG/1.1/DTD/svg11.dtd">
<svg version="1.1" id="Layer_1" xmlns="http://www.w3.org/2000/svg" xmlns:xlink="http://www.w3.org/1999/xlink" x="0px" y="0px"
	 width="32px" height="32px" viewBox="0 0 32 32" enable-background="new 0 0 32 32" xml:space="preserve">
<rect x="23.583" y="10.329" fill="#A99465" width="4.584" height="21.004"/>
<rect x="13.708" y="19.162" fill="#A99465" width="4.584" height="12.171"/>
<rect x="4" y="24.203" fill="#A99465" width="4.584" height="7.13"/>
<g>
	<path fill="#333738" d="M30.318,30.77h-1.354V11.146c0-0.916-0.738-1.656-1.656-1.656H24.29c-0.916,0-1.658,0.742-1.658,1.658
		v19.62h-3.428V20.038c0-0.914-0.742-1.658-1.658-1.658H14.53c-0.917,0-1.657,0.744-1.657,1.658v10.729H9.439V25.21
		c0-0.916-0.742-1.655-1.655-1.658h-3.02c-0.914,0.003-1.655,0.742-1.655,1.658v5.558H1.682c-0.34,0-0.616,0.274-0.616,0.616
		C1.065,31.723,1.342,32,1.682,32H30.32c0.34,0,0.615-0.277,0.615-0.615C30.936,31.043,30.659,30.77,30.318,30.77L30.318,30.77z
		 M8.209,30.77h-3.87v-5.559c0-0.234,0.19-0.424,0.424-0.424h3.021c0.232,0,0.424,0.188,0.424,0.422v5.557L8.209,30.77L8.209,30.77z
		 M17.973,30.77h-3.869V20.037c0-0.234,0.189-0.424,0.424-0.424h3.021c0.234,0,0.424,0.188,0.424,0.424V30.77L17.973,30.77z
		 M27.736,30.77h-3.868V11.146c0-0.233,0.188-0.423,0.424-0.423h3.021c0.235,0,0.424,0.19,0.424,0.423v19.622h0.002v0.002H27.736z"
		/>
	<g>
		<path fill="#A99465" d="M25.323,1.104c0.02-0.339-0.238-0.629-0.576-0.648c-0.024-0.001-0.047-0.001-0.072,0h-0.026H20.92
			c-0.34,0-0.613,0.276-0.613,0.616c0,0.339,0.273,0.615,0.613,0.615h2.303L17.13,7.78l-2.295-2.297
			c-0.24-0.24-0.63-0.241-0.871-0.002c0,0.001-0.001,0.002-0.001,0.002L2.889,16.559c-0.239,0.24-0.237,0.631,0.003,0.871
			c0.24,0.238,0.627,0.238,0.868,0L14.398,6.79l2.295,2.295c0.24,0.242,0.629,0.244,0.871,0.003c0-0.001,0.002-0.001,0.004-0.003
			l6.521-6.523v2.082c0,0.341,0.277,0.618,0.619,0.618c0.34,0,0.615-0.277,0.615-0.618V1.135L25.32,1.106l0,0L25.323,1.104
			L25.323,1.104z"/>
		<path fill="#A99465" d="M3.326,18.063c-0.284,0-0.554-0.108-0.755-0.312c-0.418-0.418-0.421-1.099-0.006-1.516L13.64,5.162
			c0.412-0.408,1.113-0.405,1.517,0l1.974,1.974l4.99-4.993H20.92c-0.59,0-1.07-0.48-1.07-1.071c0-0.591,0.48-1.071,1.07-1.071
			h3.844c0.598,0.035,1.049,0.542,1.016,1.131l0.007,3.511c0,0.592-0.479,1.073-1.07,1.073c-0.592,0-1.073-0.481-1.073-1.073V3.661
			l-5.752,5.75c-0.406,0.405-1.113,0.401-1.517-0.006L14.4,7.434L4.082,17.752C3.879,17.953,3.609,18.063,3.326,18.063z
			 M14.397,5.758c-0.024,0-0.071,0.006-0.112,0.046L3.211,16.879c-0.062,0.063-0.062,0.164,0.002,0.229
			c0.083,0.078,0.144,0.078,0.225-0.002l10.96-10.958l2.618,2.617c0.076,0.076,0.127,0.06,0.188,0.033l0.079-0.064l7.269-7.27v3.181
			c0,0.178,0.322,0.178,0.322,0v-3.51c0.002-0.142-0.063-0.218-0.151-0.223L20.92,0.912c-0.088,0-0.16,0.072-0.16,0.16
			c0,0.088,0.072,0.16,0.16,0.16h3.4l-7.19,7.191l-2.617-2.618C14.472,5.766,14.424,5.758,14.397,5.758z"/>
	</g>
</g>
</svg>
