<?xml version="1.0" encoding="utf-8"?>
<!-- Generator: Adobe Illustrator 16.0.0, SVG Export Plug-In . SVG Version: 6.00 Build 0)  -->
<!DOCTYPE svg PUBLIC "-//W3C//DTD SVG 1.1//EN" "http://www.w3.org/Graphics/SVG/1.1/DTD/svg11.dtd">
<svg version="1.1" id="Layer_1" xmlns="http://www.w3.org/2000/svg" xmlns:xlink="http://www.w3.org/1999/xlink" x="0px" y="0px"
	 width="32px" height="32px" viewBox="0 0 32 32" enable-background="new 0 0 32 32" xml:space="preserve">
<g>
	<path fill="#A99465" d="M10.713,13.675c-0.165-0.278-0.525-0.369-0.803-0.205l-0.001,0.001L3.082,17.54
		c-0.277,0.163-0.368,0.522-0.203,0.801c0.05,0.083,0.12,0.156,0.203,0.203l6.827,4.063c0.276,0.166,0.635,0.078,0.801-0.197
		c0.001-0.002,0.002-0.002,0.003-0.008c0.164-0.273,0.073-0.635-0.204-0.799L4.527,18.04l5.982-3.563
		C10.787,14.312,10.879,13.954,10.713,13.675L10.713,13.675z M21.286,22.402c0.167,0.281,0.526,0.371,0.804,0.207l0.002-0.002
		l6.825-4.063c0.278-0.165,0.369-0.524,0.203-0.801c-0.05-0.083-0.118-0.156-0.203-0.203l-6.825-4.067
		c-0.279-0.165-0.637-0.075-0.806,0.204c-0.163,0.278-0.072,0.637,0.202,0.803l0,0l5.984,3.563l-5.984,3.563
		C21.215,21.77,21.123,22.129,21.286,22.402z M18.243,13.647l-5.46,8.136c-0.181,0.268-0.109,0.632,0.16,0.813
		c0.269,0.18,0.633,0.107,0.813-0.16l5.461-8.128c0.184-0.269,0.109-0.633-0.16-0.813c-0.269-0.181-0.633-0.108-0.813,0.16
		L18.243,13.647L18.243,13.647z"/>
	<path fill="#333738" d="M31.488,3.31H0.51C0.229,3.31,0.002,3.537,0,3.815V28.18c0,0.281,0.229,0.512,0.51,0.512h30.979
		c0.281,0,0.514-0.229,0.514-0.512l0,0v-5.447c0-0.279-0.229-0.51-0.514-0.51c-0.278,0-0.51,0.229-0.51,0.51l0,0v4.938H1.021V8.414
		h29.958v12.273c0,0.282,0.229,0.513,0.51,0.514c0.281,0,0.514-0.229,0.514-0.512c0,0,0,0,0-0.002V3.818
		C32,3.537,31.771,3.309,31.488,3.31L31.488,3.31L31.488,3.31z M1.021,4.328h18.894v3.063H1.021V4.33V4.328z M20.938,7.392V4.33
		H30.98v3.063H20.934L20.938,7.392z"/>
	<path fill="#A99465" d="M25.973,5.316C25.674,5.3,25.415,5.531,25.4,5.832c-0.019,0.301,0.211,0.559,0.515,0.575
		c0.021,0.001,0.042,0.001,0.063,0c0.301-0.018,0.529-0.275,0.515-0.576c-0.017-0.277-0.237-0.499-0.515-0.515H25.973z
		 M23.184,5.316c-0.302-0.016-0.559,0.215-0.576,0.516c-0.017,0.301,0.217,0.559,0.517,0.575c0.021,0.001,0.042,0.001,0.063,0
		c0.303-0.018,0.529-0.275,0.516-0.576C23.684,5.554,23.462,5.333,23.184,5.316L23.184,5.316z M28.764,5.316
		c-0.3-0.016-0.557,0.215-0.572,0.517c-0.018,0.301,0.213,0.558,0.517,0.575c0.021,0.001,0.041,0.001,0.063,0
		c0.301-0.019,0.529-0.276,0.515-0.577c-0.019-0.277-0.238-0.498-0.515-0.514L28.764,5.316L28.764,5.316z"/>
</g>
</svg>
