<?xml version="1.0" encoding="utf-8"?>
<!-- Generator: Adobe Illustrator 16.0.0, SVG Export Plug-In . SVG Version: 6.00 Build 0)  -->
<!DOCTYPE svg PUBLIC "-//W3C//DTD SVG 1.1//EN" "http://www.w3.org/Graphics/SVG/1.1/DTD/svg11.dtd">
<svg version="1.1" id="Layer_1" xmlns="http://www.w3.org/2000/svg" xmlns:xlink="http://www.w3.org/1999/xlink" x="0px" y="0px"
	 width="32px" height="32px" viewBox="0 0 32 32" enable-background="new 0 0 32 32" xml:space="preserve">
<g>
	<path fill="#333738" d="M16,0.061C7.164,0.061,0,7.197,0,16c0,8.8,7.164,15.939,16,15.939c8.834,0,16-7.144,16-15.939
		C32,7.197,24.835,0.061,16,0.061z M16,28.396C9.139,28.396,3.555,22.836,3.555,16S9.138,3.603,16,3.603
		c6.863,0,12.445,5.562,12.445,12.397S22.863,28.396,16,28.396z"/>
	<path fill="#A99465" d="M16.889,7.145H14.22v10.626l8.447,5.045L24,20.641l-7.111-4.197V7.145z"/>
</g>
</svg>
