<?xml version="1.0" encoding="utf-8"?>
<!-- Generator: Adobe Illustrator 16.0.0, SVG Export Plug-In . SVG Version: 6.00 Build 0)  -->
<!DOCTYPE svg PUBLIC "-//W3C//DTD SVG 1.1//EN" "http://www.w3.org/Graphics/SVG/1.1/DTD/svg11.dtd">
<svg version="1.1" id="Layer_1" xmlns="http://www.w3.org/2000/svg" xmlns:xlink="http://www.w3.org/1999/xlink" x="0px" y="0px"
	 width="32px" height="32px" viewBox="0 0 32 32" enable-background="new 0 0 32 32" xml:space="preserve">
<polygon fill="#A99465" points="21.688,9.604 21.688,16.771 13.646,16.771 21.167,9.25 "/>
<polygon fill="#A99465" points="9.812,2.813 9.812,9.98 1.771,9.98 9.292,2.459 "/>
<path fill="#333738" d="M31.497,7.356C31.178,7.03,30.74,6.85,30.284,6.858h-7.429c-0.715,0-1.478,0.237-2.285,0.711V1.715
	c0.008-0.457-0.174-0.896-0.502-1.214c-0.316-0.327-0.758-0.508-1.213-0.5h-7.424c-0.543,0.016-1.077,0.136-1.572,0.357
	C9.354,0.553,8.895,0.844,8.501,1.217L1.214,8.5C0.843,8.893,0.552,9.354,0.358,9.857C0.138,10.354,0.016,10.887,0,11.43v12
	c-0.008,0.455,0.172,0.896,0.499,1.213c0.319,0.325,0.758,0.506,1.214,0.5h9.717v5.145c-0.008,0.456,0.171,0.895,0.498,1.213
	c0.318,0.328,0.759,0.509,1.216,0.5h17.142c0.454,0.009,0.896-0.173,1.215-0.5c0.326-0.316,0.507-0.757,0.498-1.213V8.573
	c0.009-0.458-0.172-0.897-0.498-1.217H31.497z M20.57,10.661v5.338h-5.339L20.57,10.661z M9.142,3.805v5.339H3.806l5.338-5.339
	H9.142z M12.644,15.356c-0.372,0.392-0.664,0.853-0.859,1.358c-0.221,0.496-0.341,1.028-0.355,1.572v4.569H2.287V11.43h7.426
	c0.458,0.008,0.898-0.175,1.215-0.502c0.328-0.318,0.51-0.758,0.502-1.215V2.287h6.855v7.426L12.644,15.356z M29.711,29.712H13.713
	V18.286h7.428c0.459,0.009,0.896-0.175,1.215-0.502c0.328-0.319,0.508-0.759,0.5-1.216V9.144h6.854L29.711,29.712L29.711,29.712z"/>
</svg>
