<?xml version="1.0" encoding="utf-8"?>
<!-- Generator: Adobe Illustrator 16.0.0, SVG Export Plug-In . SVG Version: 6.00 Build 0)  -->
<!DOCTYPE svg PUBLIC "-//W3C//DTD SVG 1.1//EN" "http://www.w3.org/Graphics/SVG/1.1/DTD/svg11.dtd">
<svg version="1.1" id="Layer_1" xmlns="http://www.w3.org/2000/svg" xmlns:xlink="http://www.w3.org/1999/xlink" x="0px" y="0px"
	 width="32px" height="32px" viewBox="0 0 32 32" enable-background="new 0 0 32 32" xml:space="preserve">
<g>
	<path fill="#333738" d="M19.309,7.514c1.483,0.891,2.521,2.397,2.707,4.146c0.605,0.271,1.272,0.425,1.984,0.425
		c2.592,0,4.693-2.016,4.693-4.502c0-2.49-2.104-4.506-4.693-4.506C21.434,3.077,19.35,5.059,19.309,7.514z M25.991,12.394h-3.953
		c-0.045,1.478-0.688,2.872-1.784,3.866c2.945,0.842,5.104,3.459,5.104,6.559v1.439c3.899-0.137,6.146-1.197,6.295-1.27l0.313-0.152
		H32V18.16C32,14.979,29.307,12.394,25.991,12.394z M8,12.086c0.919,0,1.772-0.258,2.498-0.695c0.23-1.439,1.033-2.698,2.183-3.556
		c0.003-0.085,0.013-0.168,0.013-0.253c0-2.49-2.102-4.504-4.693-4.504S3.308,5.094,3.308,7.583C3.308,10.07,5.408,12.086,8,12.086z
		 M12.215,16.259c-1.088-0.989-1.731-2.376-1.783-3.846c-0.147-0.01-0.292-0.021-0.441-0.021H6.009C2.695,12.394,0,14.979,0,18.16
		v4.676l0.012,0.07l0.336,0.102c2.537,0.762,4.8,1.111,6.767,1.223v-1.412c0-3.1,2.154-5.717,5.102-6.559L12.215,16.259
		L12.215,16.259z"/>
</g>
<g>
	<path fill="#A99465" d="M16.234,16.734c2.594,0,4.692-2.019,4.692-4.504s-2.099-4.503-4.692-4.503c-2.59,0-4.693,2.016-4.693,4.504
		C11.542,14.719,13.644,16.734,16.234,16.734z"/>
	<path fill="#A99465" d="M18.227,17.043h-3.979c-3.313,0-6.01,2.586-6.01,5.768v4.681l0.013,0.065l0.337,0.104
		c3.161,0.948,5.907,1.264,8.169,1.264c4.416,0,6.979-1.211,7.139-1.284l0.313-0.148h0.033v-4.68
		C24.234,19.629,21.54,17.043,18.227,17.043z"/>
</g>
</svg>
