<?xml version="1.0" encoding="utf-8"?>
<!-- Generator: Adobe Illustrator 16.0.0, SVG Export Plug-In . SVG Version: 6.00 Build 0)  -->
<!DOCTYPE svg PUBLIC "-//W3C//DTD SVG 1.1//EN" "http://www.w3.org/Graphics/SVG/1.1/DTD/svg11.dtd">
<svg version="1.1" id="Layer_1" xmlns="http://www.w3.org/2000/svg" xmlns:xlink="http://www.w3.org/1999/xlink" x="0px" y="0px"
	 width="32px" height="32px" viewBox="0 0 32 32" enable-background="new 0 0 32 32" xml:space="preserve">
<g>
	<path fill="#333738" d="M26.4,9.313c-2.896-2.489-6.586-3.857-10.403-3.854C7.162,5.46-0.001,12.624,0,21.461l0,0
		c0,0.234,0.023,2.447,0.034,2.684v2.396h31.899V24.32l0.029-0.176C31.977,23.908,32,21.695,32,21.459
		c0-7.842-5.6-12.144-5.6-12.144V9.313z M2.365,24.342C2.35,24.18,2.372,21.613,2.36,21.451h3.691v-1.184H2.62
		c0-0.017-0.26,0.002-0.26,0.002c0.143-3.177,1.398-6.193,3.545-8.537L6,11.637l0.166,0.143l2.458,2.438l0.771-0.769l-2.611-2.587
		c2.354-2.138,5.383-3.381,8.56-3.513h0.185c0,0,0.077-0.003,0.071,0.045v3.61h0.984V7.352c0.484,0.02,0.969,0.076,1.447,0.151
		c2.746,0.356,5.316,1.546,7.365,3.407l-2.604,2.585l0.726,0.721l2.504-2.481l0.141-0.11l0.115,0.156
		c2.15,2.318,3.406,5.326,3.548,8.486h-3.688v1.182l3.704-0.004c0,0,0.003,2.738-0.009,2.885L2.367,24.34L2.365,24.342z"/>
	<path fill="#A99465" d="M23.21,15.197c-1.788,0.565-6.306,3.754-7.211,4.537c-0.904,0.789-1.127,1.125-0.372,2.059
		c0.502,0.623,1.191,0.623,2.064,0C22.563,17.02,24.4,14.821,23.21,15.197z"/>
	<circle fill="#A99465" cx="16.03" cy="21.371" r="2.291"/>
</g>
</svg>
