<?xml version="1.0" encoding="utf-8"?>
<!-- Generator: Adobe Illustrator 16.0.0, SVG Export Plug-In . SVG Version: 6.00 Build 0)  -->
<!DOCTYPE svg PUBLIC "-//W3C//DTD SVG 1.1//EN" "http://www.w3.org/Graphics/SVG/1.1/DTD/svg11.dtd">
<svg version="1.1" id="Layer_1" xmlns="http://www.w3.org/2000/svg" xmlns:xlink="http://www.w3.org/1999/xlink" x="0px" y="0px"
	 width="32px" height="32px" viewBox="0 0 32 32" enable-background="new 0 0 32 32" xml:space="preserve">
<g>
	<g>
		<path fill="#333738" d="M8.287,13.936c0.001,0,0.002,0,0.004,0c2.284,0.005,4.141-1.843,4.146-4.128c0,0,0-0.002,0-0.003
			c-0.004-2.284-1.86-4.134-4.145-4.129c-0.001,0-0.001,0-0.001,0C7.047,5.672,5.941,6.23,5.182,7.099
			C4.546,7.825,4.147,8.763,4.145,9.803c0,0,0,0,0,0.001c0.001,1.042,0.401,1.98,1.037,2.708
			C5.941,13.378,7.044,13.937,8.287,13.936z M6.114,9.805c0-1.197,0.975-2.168,2.177-2.168c1.201,0,2.177,0.971,2.177,2.168
			c0,1.199-0.976,2.168-2.177,2.168C7.091,11.976,6.117,11.005,6.114,9.805C6.114,9.806,6.114,9.806,6.114,9.805z"/>
		<path fill="#333738" d="M8.291,14.968c-0.854,0-1.973,0.133-3.109,0.396C2.639,15.954,0,17.199,0,19.1v3.096h5.182h11.401V19.1
			C16.583,16.353,11.059,14.968,8.291,14.968z M14.612,20.232h-9.43H1.97v-1.135c0-0.435,1.394-1.222,3.212-1.72
			c0.964-0.264,2.043-0.448,3.109-0.448c3.079,0,6.321,1.508,6.321,2.168V20.232z"/>
	</g>
	<polygon fill="#A99465" points="30.25,16.453 23.85,22.84 20.729,19.742 20.339,19.355 18.591,21.1 20.729,23.225 23.85,26.324 
		32,18.193 	"/>
</g>
</svg>
