<?xml version="1.0" encoding="utf-8"?>
<!-- Generator: Adobe Illustrator 16.0.0, SVG Export Plug-In . SVG Version: 6.00 Build 0)  -->
<!DOCTYPE svg PUBLIC "-//W3C//DTD SVG 1.1//EN" "http://www.w3.org/Graphics/SVG/1.1/DTD/svg11.dtd">
<svg version="1.1" id="Layer_1" xmlns="http://www.w3.org/2000/svg" xmlns:xlink="http://www.w3.org/1999/xlink" x="0px" y="0px"
	 width="32px" height="32px" viewBox="0 0 32 32" enable-background="new 0 0 32 32" xml:space="preserve">
<polygon fill="#A99465" points="19.359,4.516 19.359,8.922 24.094,9.078 22.719,7.359 19.578,4.328 "/>
<g>
	<path fill="#333738" d="M3.734,3.733v27.731C3.734,31.758,3.973,32,4.268,32h20.268c0.293,0,0.53-0.242,0.53-0.533v-22.4
		c0-0.014-0.004-0.022-0.006-0.034c-0.004-0.046-0.015-0.092-0.025-0.136c-0.008-0.019-0.012-0.034-0.021-0.051
		c-0.021-0.059-0.061-0.111-0.104-0.158l-5.334-5.332c-0.09-0.092-0.213-0.146-0.344-0.151c-0.008,0.002-0.021-0.004-0.029-0.004
		H4.269C3.975,3.201,3.734,3.438,3.734,3.733L3.734,3.733z M23.244,8.535h-3.512V5.021l3.514,3.514H23.244L23.244,8.535z
		 M4.802,4.269h13.867V9.07c0,0.293,0.239,0.532,0.532,0.532h4.801v21.332h-19.2V4.269z"/>
	<path fill="#333738" d="M26.133,27.732v1.063h1.6c0.295,0,0.533-0.233,0.533-0.528c0-0.002,0-0.002,0-0.002V0.535
		C28.268,0.24,28.029,0.001,27.736,0c0,0,0,0-0.002,0H7.466C7.172,0,6.935,0.238,6.935,0.533v1.6h1.063V1.068h19.201V27.73h-1.068
		L26.133,27.732z"/>
	<path fill="#333738" d="M8.001,10.667H20.8v1.067H8.001V10.667z M8.001,7.468h4.267v1.064H8.001V7.468z M8.001,13.868h8.533v1.065
		H8.001V13.868z M17.602,13.868H20.8v1.065h-3.196L17.602,13.868z M8.001,17.066H20.8v1.063H8.001V17.066z M8.001,23.467H20.8v1.066
		H8.001V23.467z M12.8,20.268h8.001v1.066H12.8V20.268z M8.001,20.268h3.732v1.066H8L8.001,20.268z M8.001,26.666h2.133v1.066H8
		L8.001,26.666z M11.2,26.666h9.6v1.066h-9.598L11.2,26.666z"/>
</g>
</svg>
