<?xml version="1.0" encoding="utf-8"?>
<!-- Generator: Adobe Illustrator 16.0.0, SVG Export Plug-In . SVG Version: 6.00 Build 0)  -->
<!DOCTYPE svg PUBLIC "-//W3C//DTD SVG 1.1//EN" "http://www.w3.org/Graphics/SVG/1.1/DTD/svg11.dtd">
<svg version="1.1" id="Layer_1" xmlns="http://www.w3.org/2000/svg" xmlns:xlink="http://www.w3.org/1999/xlink" x="0px" y="0px"
	 width="595.279px" height="841.891px" viewBox="0 0 595.279 841.891" enable-background="new 0 0 595.279 841.891"
	 xml:space="preserve">
<polygon fill="#A99465" points="14.882,608.83 22.323,566.045 55.808,495.355 96.733,467.451 178.584,435.827 247.413,445.128 
	310.661,476.753 349.727,532.561 375.771,599.529 355.308,625.572 46.506,631.153 "/>
<polygon fill="#A99465" points="321.823,484.193 325.543,463.73 392.513,409.783 446.46,396.762 511.569,411.644 558.075,476.753 
	569.237,519.538 569.237,541.861 509.708,547.442 359.029,538.141 321.823,487.914 "/>
<path fill="#333738" d="M500.407,387.46c22.323-20.462,35.345-48.366,35.345-78.13c0-55.808-42.786-102.314-96.733-102.314
	s-96.733,46.506-96.733,102.314c0,31.624,13.022,59.528,35.346,78.13c-7.441,3.721-16.743,7.441-24.184,13.022
	c-18.603,13.021-35.345,29.764-46.507,48.366c-13.021-9.301-26.043-16.742-40.925-20.463
	c31.624-24.183,50.227-63.248,50.227-102.313c1.86-72.55-52.087-128.357-119.056-128.357c-65.109,0-119.057,55.808-119.057,126.497
	c0,42.786,20.463,79.991,50.228,102.313C63.248,452.569,13.022,512.098,0,588.367c-1.86,13.022,1.86,27.904,9.301,39.065
	c9.302,11.162,22.323,16.742,35.345,16.742h303.221c13.022,0,26.044-5.58,35.345-16.742c9.302-11.161,13.022-26.043,9.302-39.065
	c-1.86-9.301-3.721-18.602-5.581-27.903h167.423c11.161,0,22.323-5.581,29.764-14.882c7.441-9.302,11.161-22.323,9.302-33.484
	C584.118,454.43,548.774,409.783,500.407,387.46z M377.631,309.33c0-37.205,27.903-65.109,61.388-65.109
	s61.389,29.764,61.389,65.109s-27.904,65.109-61.389,65.109C403.674,374.439,377.631,344.675,377.631,309.33z M113.475,324.212
	c0-50.227,37.205-89.292,85.572-89.292c46.506,0,85.571,40.926,85.571,89.292c0,50.227-37.205,91.152-85.571,91.152
	C150.68,413.504,113.475,374.439,113.475,324.212z M357.168,603.25c-1.86,1.86-5.581,3.72-7.441,3.72H46.506
	c-3.721,0-5.581-1.859-7.44-3.72c-1.86-1.86-3.721-5.581-1.86-9.302c14.882-83.711,81.851-143.239,161.842-143.239
	c79.99,0,148.819,61.389,161.842,143.239C360.889,597.669,359.029,601.39,357.168,603.25z M559.935,523.259
	c0,1.86-1.859,1.86-3.72,1.86H373.91c-9.302-20.463-24.184-37.205-39.065-53.947c22.323-37.205,61.388-59.528,104.174-59.528
	c59.528,0,111.615,44.646,122.776,107.895C559.935,521.398,559.935,521.398,559.935,523.259z"/>
</svg>
