<?xml version="1.0" encoding="utf-8"?>
<!-- Generator: Adobe Illustrator 16.0.0, SVG Export Plug-In . SVG Version: 6.00 Build 0)  -->
<!DOCTYPE svg PUBLIC "-//W3C//DTD SVG 1.1//EN" "http://www.w3.org/Graphics/SVG/1.1/DTD/svg11.dtd">
<svg version="1.1" id="Layer_1" xmlns="http://www.w3.org/2000/svg" xmlns:xlink="http://www.w3.org/1999/xlink" x="0px" y="0px"
	 width="32px" height="32px" viewBox="0 0 32 32" enable-background="new 0 0 32 32" xml:space="preserve">
<path fill="#A99465" d="M25.576,13.647c-0.234-0.779-0.572-1.527-1.002-2.224L24.2,10.819l2.753-3.149L24.8,5.647l-3.288,2.688
	l-0.55-0.298c-0.761-0.411-1.567-0.73-2.399-0.95L17.918,6.92l-0.432-4.055h-2.973L14.08,6.922L13.439,7.09
	c-0.838,0.221-1.646,0.54-2.403,0.949l-0.55,0.299L7.029,5.683L5.04,7.666l2.757,3.15l-0.373,0.605
	c-0.428,0.694-0.764,1.442-0.998,2.224L6.24,14.267L1.926,14.67v2.698l4.315,0.364l0.185,0.625c0.223,0.754,0.561,1.502,1.001,2.223
	l0.371,0.604l-2.752,3.15l2.156,2.021l3.286-2.693l0.55,0.299c0.767,0.416,1.573,0.734,2.399,0.954l0.644,0.169l0.431,4.052h3.033
	l0.373-4.054l0.645-0.167c0.824-0.217,1.633-0.538,2.399-0.954l0.55-0.297l3.461,2.656l1.985-1.983l-2.755-3.151l0.367-0.604
	c0.438-0.717,0.775-1.465,1.002-2.227l0.187-0.623l4.313-0.399V14.64l-4.309-0.371L25.576,13.647z M21.354,17.175l-0.377,0.849
	c-0.278,0.625-0.672,1.18-1.166,1.638c-1.043,0.95-2.389,1.474-3.792,1.474l-0.016-0.963l0.002,0.963h-0.018
	c-1.404,0-2.75-0.521-3.786-1.464c-0.509-0.479-0.899-1.028-1.175-1.647c-0.291-0.635-0.438-1.317-0.436-2.022
	c0-0.703,0.146-1.385,0.434-2.02c0.279-0.624,0.672-1.175,1.164-1.635c2.125-1.934,5.568-1.871,7.61-0.01
	c0.503,0.471,0.896,1.021,1.177,1.646c0.283,0.629,0.432,1.31,0.432,2.019C21.404,16.388,21.438,16.807,21.354,17.175z"/>
<path fill="#333738" d="M17.661,31.063h-3.298c-0.443,0-0.847-0.146-1.168-0.427c-0.335-0.293-0.535-0.68-0.579-1.12l-0.311-2.928
	c-0.552-0.176-1.093-0.393-1.621-0.646l-2.481,1.906c-0.367,0.258-0.723,0.377-1.091,0.377c-0.403,0-0.886-0.16-1.211-0.451
	l-2.35-2.205c-0.31-0.271-0.512-0.69-0.537-1.135c-0.021-0.479,0.158-0.931,0.491-1.258l1.926-2.208
	c-0.251-0.47-0.466-0.948-0.644-1.435l-3.189-0.299c-0.434-0.041-0.823-0.221-1.118-0.521C0.167,18.398,0,17.993,0,17.54v-3.076
	c-0.008-0.432,0.171-0.873,0.493-1.19c0.279-0.288,0.668-0.468,1.11-0.508l3.185-0.297c0.18-0.494,0.394-0.973,0.64-1.437
	L3.453,8.773C3.17,8.499,2.992,8.045,3.012,7.581C3.038,7.129,3.24,6.71,3.568,6.417l2.317-2.171
	C6.22,3.939,6.641,3.775,7.079,3.775c0.443,0.013,0.811,0.143,1.12,0.376l2.483,1.908c0.525-0.251,1.068-0.466,1.623-0.645
	l0.313-2.936c0.041-0.432,0.25-0.833,0.587-1.119c0.309-0.27,0.716-0.423,1.14-0.423h3.292h0.002c0.441,0,0.848,0.152,1.166,0.429
	c0.34,0.29,0.545,0.694,0.578,1.14l0.313,2.907c0.554,0.179,1.097,0.394,1.619,0.646l2.481-1.905
	c0.284-0.234,0.681-0.378,1.083-0.378h0.002c0.479,0,0.896,0.163,1.227,0.458l2.346,2.199c0.313,0.281,0.516,0.702,0.535,1.142
	c0.02,0.478-0.159,0.931-0.491,1.255l-1.927,2.204c0.248,0.464,0.464,0.942,0.645,1.438l3.189,0.297
	c0.4,0.027,0.805,0.209,1.107,0.509L32,14.224v0.234c0,0.005,0,0.011,0,0.016v3.066c0.003,0.433-0.174,0.866-0.486,1.18
	c-0.281,0.294-0.672,0.476-1.117,0.517l-3.187,0.3c-0.177,0.483-0.392,0.965-0.642,1.435l1.977,2.264
	c0.28,0.27,0.461,0.723,0.443,1.188c-0.027,0.463-0.232,0.883-0.563,1.172l-2.31,2.168c-0.613,0.565-1.652,0.627-2.331,0.077
	l-2.468-1.896c-0.528,0.254-1.071,0.473-1.623,0.646l-0.313,2.935c-0.03,0.422-0.239,0.83-0.586,1.121
	C18.488,30.91,18.081,31.063,17.661,31.063z M14.512,29.136h3.033l0.373-4.054l0.645-0.167c0.824-0.217,1.633-0.538,2.399-0.954
	l0.55-0.297l3.461,2.656l1.985-1.983l-2.755-3.151l0.367-0.604c0.438-0.717,0.775-1.465,1.002-2.227l0.187-0.623l4.313-0.399V14.64
	l-4.309-0.371l-0.188-0.621c-0.234-0.779-0.572-1.527-1.002-2.224L24.2,10.819l2.753-3.149L24.8,5.647l-3.288,2.688l-0.55-0.298
	c-0.761-0.411-1.567-0.73-2.399-0.95L17.918,6.92l-0.432-4.055h-2.972l-0.433,4.057L13.439,7.09
	c-0.837,0.221-1.646,0.54-2.403,0.949l-0.549,0.299L7.029,5.683L5.04,7.666l2.757,3.15l-0.373,0.605
	c-0.428,0.694-0.764,1.442-0.998,2.224L6.24,14.267L1.926,14.67v2.698l4.315,0.364l0.185,0.625c0.223,0.754,0.56,1.502,1.001,2.223
	l0.371,0.604l-2.752,3.15l2.156,2.021l3.286-2.693l0.55,0.299c0.766,0.416,1.574,0.734,2.4,0.954l0.643,0.169L14.512,29.136z
	 M16.017,21.133l-0.015-0.963l0.002,0.963h-0.017c-1.405,0-2.75-0.521-3.787-1.464c-0.508-0.479-0.899-1.028-1.175-1.649
	c-0.29-0.634-0.438-1.315-0.435-2.021c0-0.703,0.146-1.385,0.433-2.02c0.28-0.624,0.672-1.175,1.164-1.635
	c2.126-1.934,5.569-1.871,7.611-0.01c0.503,0.471,0.896,1.021,1.175,1.646c0.285,0.629,0.435,1.31,0.435,2.019
	c0,0.39,0.032,0.81-0.054,1.177l0,0l-0.377,0.85c-0.278,0.625-0.672,1.179-1.166,1.637C18.768,20.611,17.422,21.133,16.017,21.133z
	 M16.004,19.208l-0.002,0.962l0.015-0.962c0.924,0,1.808-0.343,2.488-0.964c0.259-0.238,0.474-0.527,0.644-0.854l0.072-0.162
	c0.176-0.388,0.26-0.791,0.26-1.229c0-0.438-0.084-0.839-0.26-1.227c-0.18-0.396-0.423-0.738-0.729-1.024
	c-1.369-1.248-3.661-1.213-4.999,0.01c-0.294,0.275-0.538,0.619-0.714,1.011c-0.177,0.392-0.263,0.794-0.263,1.229
	c-0.002,0.43,0.088,0.844,0.264,1.229c0.175,0.396,0.419,0.736,0.727,1.026c0.67,0.61,1.555,0.953,2.479,0.953L16.004,19.208
	L16.004,19.208z"/>
</svg>
