<?xml version="1.0" encoding="utf-8"?>
<!-- Generator: Adobe Illustrator 16.0.0, SVG Export Plug-In . SVG Version: 6.00 Build 0)  -->
<!DOCTYPE svg PUBLIC "-//W3C//DTD SVG 1.1//EN" "http://www.w3.org/Graphics/SVG/1.1/DTD/svg11.dtd">
<svg version="1.1" id="Layer_1" xmlns="http://www.w3.org/2000/svg" xmlns:xlink="http://www.w3.org/1999/xlink" x="0px" y="0px"
	 width="595.279px" height="841.891px" viewBox="0 0 595.279 841.891" enable-background="new 0 0 595.279 841.891"
	 xml:space="preserve">
<polygon fill="#A99465" points="383.211,309.33 332.985,305.609 452.04,143.768 574.818,301.889 526.45,311.19 507.848,703.703 
	399.953,696.262 "/>
<rect x="273.457" y="426.525" fill="#A99465" width="109.754" height="267.877"/>
<rect x="152.54" y="517.678" fill="#A99465" width="109.755" height="176.725"/>
<rect x="24.183" y="610.69" fill="#A99465" width="109.755" height="83.712"/>
<g>
	<path fill="#333738" d="M591.56,298.168L466.923,130.746c-5.581-7.441-16.742-9.301-24.184-3.721c-1.86,1.86-1.86,1.86-3.721,3.721
		L314.382,298.168c-5.581,7.441-3.721,18.603,3.721,24.183c3.721,1.86,7.44,3.721,11.161,3.721h44.646v83.711
		c-9.302-5.58-18.603-7.44-29.765-7.44h-31.624c-35.345,0-63.248,27.903-63.248,63.248v37.205c-9.302-5.58-18.603-7.44-29.764-7.44
		h-31.625c-35.345,0-63.248,27.903-63.248,63.248v37.205c-9.302-5.581-18.603-7.441-29.765-7.441H63.248
		C27.904,588.367,0,616.271,0,651.616v46.506c0,13.022,7.44,20.463,16.742,20.463h498.547c9.301,0,16.742-7.44,16.742-16.742l0,0
		V326.072h44.646c9.301,0,16.742-7.441,16.742-16.742C595.28,305.609,593.42,301.889,591.56,298.168L591.56,298.168L591.56,298.168z
		 M35.345,655.337c0-16.742,13.021-29.765,29.764-29.765h31.624c16.742,0,29.765,13.022,29.765,29.765v29.764H35.345V655.337z
		 M159.982,655.337v-93.013c0-16.742,13.021-29.764,29.764-29.764h31.624c16.743,0,29.765,13.021,29.765,29.764v122.776h-91.152
		V655.337L159.982,655.337z M284.618,560.464v-93.013c0-16.742,13.021-29.764,29.764-29.764h31.624
		c16.742,0,29.765,13.021,29.765,29.764V683.24h-89.292C284.618,683.24,284.618,560.464,284.618,560.464z M515.289,290.728
		c-9.302,0-16.742,7.441-16.742,16.742l0,0v373.91h-89.292V309.33c0-9.301-9.302-18.603-18.603-18.603l0,0h-27.904l89.292-120.917
		l91.152,120.917H515.289L515.289,290.728z"/>
</g>
</svg>
