<?xml version="1.0" encoding="utf-8"?>
<!-- Generator: Adobe Illustrator 16.0.0, SVG Export Plug-In . SVG Version: 6.00 Build 0)  -->
<!DOCTYPE svg PUBLIC "-//W3C//DTD SVG 1.1//EN" "http://www.w3.org/Graphics/SVG/1.1/DTD/svg11.dtd">
<svg version="1.1" id="Layer_1" xmlns="http://www.w3.org/2000/svg" xmlns:xlink="http://www.w3.org/1999/xlink" x="0px" y="0px"
	 width="32px" height="32px" viewBox="0 0 32 32" enable-background="new 0 0 32 32" xml:space="preserve">
<circle fill="#A99465" cx="16" cy="22.121" r="3.621"/>
<g>
	<path fill="#333738" d="M25.205,14.852H6.793V9.206C6.793,4.13,10.924,0,16,0c2.459,0,4.771,0.958,6.508,2.695
		c1.74,1.739,2.697,4.052,2.697,6.511V14.852z M9.401,12.242h13.195V9.206c0-1.763-0.688-3.419-1.933-4.665
		c-1.248-1.245-2.904-1.933-4.666-1.933C12.36,2.608,9.4,5.567,9.4,9.206L9.401,12.242L9.401,12.242z"/>
	<path fill="#333738" d="M16,27.143c-2.771,0-5.022-2.252-5.022-5.021c0-2.771,2.253-5.022,5.022-5.022
		c2.77,0,5.021,2.254,5.021,5.022S18.77,27.143,16,27.143z M16,19.709c-1.33,0-2.414,1.082-2.414,2.413
		c0,1.329,1.084,2.413,2.414,2.413s2.412-1.084,2.412-2.413C18.412,20.791,17.33,19.709,16,19.709z"/>
	<g>
		<path fill="#333738" d="M27.348,32H4.651c-1.582,0-2.87-1.287-2.87-2.869V18.412c0-0.723,0.584-1.307,1.305-1.307
			c0.721,0,1.305,0.584,1.305,1.307v10.719c0,0.145,0.117,0.262,0.262,0.262H27.35c0.146,0,0.262-0.117,0.262-0.262v-14.02
			c0-0.144-0.115-0.261-0.262-0.261H3.086c-0.721,0-1.305-0.584-1.305-1.305c0-0.721,0.584-1.304,1.305-1.304H27.35
			c1.582,0,2.869,1.286,2.869,2.868v14.02C30.219,30.713,28.93,32,27.348,32z"/>
	</g>
</g>
</svg>
