<?xml version="1.0" encoding="utf-8"?>
<!-- Generator: Adobe Illustrator 16.0.0, SVG Export Plug-In . SVG Version: 6.00 Build 0)  -->
<!DOCTYPE svg PUBLIC "-//W3C//DTD SVG 1.1//EN" "http://www.w3.org/Graphics/SVG/1.1/DTD/svg11.dtd">
<svg version="1.1" id="Layer_1" xmlns="http://www.w3.org/2000/svg" xmlns:xlink="http://www.w3.org/1999/xlink" x="0px" y="0px"
	 width="32px" height="32px" viewBox="281.64 404.945 32 32" enable-background="new 281.64 404.945 32 32" xml:space="preserve">
<title>managment-recieption-02</title>
<g>
	<path fill="#333738" d="M300.499,407.863c-0.771-0.785-1.826-1.224-2.926-1.217l0,0c-2.268,0.03-4.101,1.856-4.142,4.123
		c-0.014,2.288,1.83,4.153,4.117,4.167s4.153-1.83,4.167-4.117C301.722,409.71,301.283,408.645,300.499,407.863z M297.649,412.955
		c-1.207,0-2.185-0.979-2.185-2.186c0-1.206,0.978-2.185,2.185-2.185s2.185,0.979,2.185,2.185l0,0
		C299.824,411.972,298.852,412.944,297.649,412.955z"/>
	<path fill="#333738" d="M297.649,415.937c-1.044,0.019-2.083,0.152-3.097,0.399c-2.546,0.589-5.187,1.9-5.187,3.8v1.901h16.568
		v-1.901C305.934,417.325,300.499,415.937,297.649,415.937z M303.977,421.201h-12.654v-1.141c0-0.418,1.387-1.216,3.23-1.71
		c1.007-0.289,2.049-0.443,3.097-0.456c3.079,0,6.328,1.501,6.328,2.186V421.201z"/>
	<path fill="#A99465" d="M297.649,420.687H281.64v1.954h2.318v12.604h27.383v-12.604h2.299v-1.954H297.649z M308.745,433.293
		h-22.192v-10.538h22.192V433.293z"/>
</g>
</svg>
