<?xml version="1.0" encoding="utf-8"?>
<!-- Generator: Adobe Illustrator 16.0.0, SVG Export Plug-In . SVG Version: 6.00 Build 0)  -->
<!DOCTYPE svg PUBLIC "-//W3C//DTD SVG 1.1//EN" "http://www.w3.org/Graphics/SVG/1.1/DTD/svg11.dtd">
<svg version="1.1" id="Layer_1" xmlns="http://www.w3.org/2000/svg" xmlns:xlink="http://www.w3.org/1999/xlink" x="0px" y="0px"
	 width="32px" height="32px" viewBox="0 0 32 32" enable-background="new 0 0 32 32" xml:space="preserve">
<g>
	<path fill="#A99465" d="M2.69,28.887c-1.415,0-2.586-1.172-2.586-2.578S1.26,23.74,2.69,23.74c1.422,0,2.579,1.146,2.586,2.568
		C5.276,27.715,4.104,28.887,2.69,28.887z M2.69,18.58c-0.07,0.008-0.148,0.008-0.219,0c-1.422-0.063-2.524-1.268-2.469-2.688
		c0.062-1.422,1.266-2.524,2.688-2.469c0.07,0,0.148,0,0.219,0c1.422,0.063,2.524,1.266,2.469,2.688
		C5.315,17.533,4.112,18.643,2.69,18.58z M2.69,8.273c-0.07,0-0.148,0-0.219,0C1.049,8.21-0.053,7.007,0.002,5.585
		C0.065,4.163,1.268,3.053,2.69,3.116c0.07,0,0.148,0,0.219,0c1.422,0.063,2.524,1.266,2.469,2.688
		C5.315,7.226,4.112,8.328,2.69,8.273z M32,28.027H7.863V24.59H32V28.027z M32,17.721H7.863v-3.438H32V17.721z M32,7.414H7.863
		V3.976H32V7.414z"/>
	<rect x="7.863" y="24.59" fill="#333738" width="24.137" height="3.438"/>
	<rect x="7.863" y="3.976" fill="#333738" width="24.137" height="3.438"/>
	<rect x="7.863" y="14.282" fill="#333738" width="24.137" height="3.438"/>
	<path fill="#A99465" d="M2.69,23.736c-1.43,0-2.586,1.164-2.586,2.57c0,1.404,1.172,2.576,2.586,2.576s2.586-1.172,2.586-2.576
		C5.269,24.887,4.112,23.736,2.69,23.736z"/>
	<path fill="#A99465" d="M2.909,3.116c-0.07,0-0.148,0-0.219,0C1.268,3.053,0.065,4.163,0.002,5.585
		C-0.053,7.007,1.049,8.21,2.471,8.273c0.07,0,0.148,0,0.219,0c1.422,0.055,2.625-1.047,2.688-2.469
		C5.433,4.382,4.331,3.179,2.909,3.116z"/>
	<path fill="#A99465" d="M2.909,13.423c-0.07,0-0.148,0-0.219,0c-1.422-0.055-2.626,1.047-2.688,2.469
		c-0.055,1.42,1.047,2.625,2.469,2.688c0.07,0.008,0.148,0.008,0.219,0c1.422,0.063,2.625-1.047,2.688-2.469
		C5.433,14.688,4.331,13.485,2.909,13.423z"/>
</g>
</svg>
