<?xml version="1.0" encoding="utf-8"?>
<!-- Generator: Adobe Illustrator 16.0.0, SVG Export Plug-In . SVG Version: 6.00 Build 0)  -->
<!DOCTYPE svg PUBLIC "-//W3C//DTD SVG 1.1//EN" "http://www.w3.org/Graphics/SVG/1.1/DTD/svg11.dtd">
<svg version="1.1" id="Layer_1" xmlns="http://www.w3.org/2000/svg" xmlns:xlink="http://www.w3.org/1999/xlink" x="0px" y="0px"
	 width="32px" height="32px" viewBox="0 0 32 32" enable-background="new 0 0 32 32" xml:space="preserve">
<rect x="17.917" y="16" fill="#A99465" width="3.083" height="3.333"/>
<rect x="11.125" y="19.698" fill="#A99465" width="3.083" height="3.333"/>
<rect x="11.125" y="11.698" fill="#A99465" width="3.083" height="3.333"/>
<g>
	<path fill="#333738" d="M12.609,11.933c-0.272,0-0.547,0.006-0.819,0c-0.214-0.003-0.311,0.109-0.313,0.325v1.636
		c0,0.211,0.094,0.331,0.306,0.328h1.644c0.209,0,0.31-0.102,0.31-0.323l0.002-1.637c0-0.242-0.116-0.338-0.335-0.33
		C13.139,11.938,12.873,11.933,12.609,11.933 M15.991,22.242v0.003h0.815c0.223,0.003,0.321-0.116,0.319-0.353v-1.566
		c0-0.242-0.104-0.371-0.343-0.371h-1.599c-0.205,0-0.316,0.104-0.316,0.325v1.633c-0.002,0.219,0.102,0.329,0.306,0.329H15.991
		 M19.377,22.245h0.818c0.218,0.003,0.326-0.101,0.326-0.343V20.3c0-0.237-0.104-0.345-0.321-0.345h-1.604
		c-0.223,0-0.332,0.105-0.332,0.345V21.9c0,0.238,0.104,0.348,0.323,0.345H19.377 M12.597,22.245c0.26,0,0.521-0.007,0.783,0
		c0.251,0.003,0.357-0.129,0.355-0.392c-0.005-0.512-0.002-1.021,0-1.535c0-0.248-0.104-0.363-0.342-0.363
		c-0.521,0-1.047,0.003-1.568,0c-0.256,0-0.354,0.129-0.35,0.39c0.005,0.515,0.005,1.023-0.001,1.532
		c-0.005,0.255,0.1,0.371,0.335,0.368H12.597 M12.609,18.805c0.251,0,0.506-0.005,0.757,0.006c0.247,0.002,0.371-0.098,0.369-0.371
		c-0.007-0.521-0.007-1.043,0-1.562c0.005-0.257-0.111-0.362-0.344-0.36h-1.575c-0.24-0.002-0.345,0.115-0.342,0.365
		c0.004,0.52,0,1.04,0,1.561c0,0.248,0.11,0.367,0.349,0.367c0.26-0.006,0.523,0,0.786,0 M19.396,11.936l-0.818-0.002
		c-0.21-0.007-0.314,0.104-0.314,0.32v1.641c0,0.216,0.103,0.331,0.312,0.328h1.638c0.208,0,0.313-0.102,0.313-0.321V12.26
		c0-0.221-0.102-0.327-0.312-0.325L19.396,11.936 M16.005,16.518h-0.781c-0.229-0.004-0.355,0.094-0.354,0.354
		c0.005,0.531,0.003,1.064,0,1.597c0,0.238,0.121,0.347,0.336,0.347h1.569c0.229,0,0.354-0.108,0.354-0.36V16.85
		c0-0.219-0.104-0.328-0.305-0.332H16.005 M19.382,18.805l0.786,0.006c0.25,0.002,0.359-0.119,0.359-0.385
		c-0.01-0.51-0.01-1.021,0-1.531c0-0.248-0.096-0.377-0.332-0.379H18.59c-0.213,0-0.326,0.113-0.326,0.351v1.598
		c0,0.229,0.113,0.345,0.332,0.345h0.786 M15.998,14.221L15.998,14.221l0.783,0.001c0.226,0,0.354-0.093,0.35-0.356
		c-0.005-0.52-0.005-1.039,0-1.559c0-0.249-0.104-0.372-0.34-0.374h-1.569c-0.229,0-0.353,0.105-0.35,0.358
		c0.002,0.522,0.004,1.042,0,1.562c-0.005,0.255,0.108,0.369,0.34,0.37h0.786 M18.26,26.258c0-0.468-0.005-0.936,0.004-1.402
		c0.006-0.22-0.072-0.317-0.304-0.313c-0.55,0.01-1.103,0.01-1.652,0c-0.229,0-0.308,0.093-0.305,0.313
		c0.004,0.938,0.004,1.867,0,2.806c-0.003,0.218,0.077,0.317,0.305,0.317c0.551-0.011,1.102-0.014,1.652,0
		c0.229,0,0.31-0.098,0.304-0.314C18.252,27.193,18.26,26.723,18.26,26.258 M15.998,26.271c0-0.48-0.003-0.967,0.002-1.448
		c0.003-0.206-0.081-0.283-0.283-0.283c-0.559,0.01-1.119,0.01-1.678,0c-0.22-0.004-0.304,0.087-0.302,0.3
		c0.005,0.951,0.003,1.899,0,2.854c0,0.201,0.091,0.285,0.291,0.281c0.559-0.004,1.117-0.007,1.677,0
		c0.218,0.004,0.3-0.084,0.295-0.297c-0.006-0.468,0-0.938,0-1.406 M18.846,4.385c0.486,0,0.549,0.058,0.549,0.509V6.38
		c0,0.311-0.101,0.404-0.435,0.404h-2.022c-0.096,0-0.188,0.011-0.291,0.016v1.535c0.721,0.113,1.391,0.343,1.98,0.74
		c0.646,0.431,1.146,0.976,1.46,1.653c0.086,0.186,0.195,0.231,0.399,0.225c0.459-0.012,0.918-0.005,1.377-0.002
		c0.582,0.005,0.926,0.322,0.926,0.861v17.312H9.229C9.224,29.05,9.212,28.979,9.212,28.9V11.865c0-0.577,0.372-0.915,1-0.917
		c0.48,0,0.958,0.007,1.437-0.004c0.087-0.002,0.215-0.069,0.25-0.138c0.742-1.453,1.967-2.281,3.686-2.48
		c0.046-0.006,0.091-0.021,0.17-0.04V7.983V4.259c0-0.348,0-0.348,0.37-0.348h0.111c0.377,0,0.375,0,0.396,0.353
		c0,0.033,0.007,0.066,0.017,0.122h2.192L18.846,4.385L18.846,4.385z"/>
	<path fill="#333738" d="M24.258,32H7.742c-2.276,0-4.129-1.852-4.129-4.129V4.129C3.613,1.853,5.466,0,7.742,0h16.516
		c2.277,0,4.129,1.853,4.129,4.129v23.742C28.387,30.148,26.535,32,24.258,32z M7.742,1.652c-1.366,0-2.478,1.111-2.478,2.477
		v23.742c0,1.365,1.11,2.479,2.478,2.479h16.516c1.366,0,2.479-1.109,2.479-2.479V4.129c0-1.366-1.109-2.477-2.479-2.477H7.742z"/>
</g>
<rect x="45.438" y="16.092" fill="#A99465" width="13.788" height="15.131"/>
<rect x="45.438" y="-4.492" fill="#333738" width="13.788" height="15.129"/>
</svg>
