<?xml version="1.0" encoding="utf-8"?>
<!-- Generator: Adobe Illustrator 16.0.0, SVG Export Plug-In . SVG Version: 6.00 Build 0)  -->
<!DOCTYPE svg PUBLIC "-//W3C//DTD SVG 1.1//EN" "http://www.w3.org/Graphics/SVG/1.1/DTD/svg11.dtd">
<svg version="1.1" id="Layer_1" xmlns="http://www.w3.org/2000/svg" xmlns:xlink="http://www.w3.org/1999/xlink" x="0px" y="0px"
	 width="32px" height="32px" viewBox="0 0 32 32" enable-background="new 0 0 32 32" xml:space="preserve">
<g>
	<path fill="#333738" d="M23.146,10.814c1.16,1.433,1.836,3.193,1.931,5.035c0.065,1.325-0.166,2.647-0.685,3.868
		c-1.356,3.235-4.496,5.36-8,5.422v-3.277c0-0.182-0.229-0.276-0.38-0.168l-6.755,4.966c-0.111,0.084-0.111,0.256,0,0.332
		l6.749,4.965c0.156,0.106,0.377,0.011,0.377-0.172v-3.281c5.48-0.062,10.107-3.751,11.572-8.782
		c0.443-1.511,0.602-3.146,0.41-4.839c-0.26-2.253-1.148-4.385-2.572-6.149c-0.563-0.72-1.595-0.861-2.334-0.324
		c-0.746,0.554-0.906,1.609-0.352,2.357C23.119,10.78,23.131,10.797,23.146,10.814z"/>
	<path fill="#A99465" d="M3.639,17.12c-0.19-1.625-0.051-3.271,0.409-4.839C5.524,7.26,10.141,3.564,15.62,3.499V0.218
		c0-0.184,0.229-0.28,0.379-0.172l6.753,4.964c0.111,0.088,0.111,0.256,0,0.333l-6.746,4.964c-0.155,0.11-0.377,0.014-0.377-0.168
		V6.861c-3.505,0.063-6.644,2.189-8,5.423c-1.264,2.969-0.784,6.394,1.245,8.903c0.581,0.725,0.465,1.778-0.259,2.357
		c-0.02,0.021-0.04,0.033-0.061,0.053c-0.74,0.534-1.771,0.393-2.335-0.326C4.798,21.503,3.904,19.371,3.639,17.12z"/>
</g>
</svg>
