<?xml version="1.0" encoding="utf-8"?>
<!-- Generator: Adobe Illustrator 16.0.0, SVG Export Plug-In . SVG Version: 6.00 Build 0)  -->
<!DOCTYPE svg PUBLIC "-//W3C//DTD SVG 1.1//EN" "http://www.w3.org/Graphics/SVG/1.1/DTD/svg11.dtd">
<svg version="1.1" id="Layer_1" xmlns="http://www.w3.org/2000/svg" xmlns:xlink="http://www.w3.org/1999/xlink" x="0px" y="0px"
	 width="32px" height="32px" viewBox="0 0 32 32" enable-background="new 0 0 32 32" xml:space="preserve">
<g>
	<path fill="#333738" d="M2.157,11.875c0.173,0.592,0.412,1.163,0.715,1.7l-0.864,1.09c-0.28,0.355-0.248,0.864,0.067,1.184
		l1.488,1.488c0.32,0.321,0.829,0.349,1.184,0.065l1.082-0.855c0.557,0.32,1.148,0.571,1.768,0.747l0.16,1.394
		c0.054,0.451,0.436,0.791,0.887,0.791h2.104c0.451,0,0.832-0.34,0.886-0.791l0.154-1.344c0.663-0.173,1.298-0.431,1.893-0.765
		l1.05,0.829c0.355,0.279,0.862,0.248,1.184-0.068l1.483-1.488c0.322-0.32,0.352-0.83,0.066-1.184l-0.813-1.033
		c0.341-0.586,0.604-1.209,0.779-1.863l1.254-0.144c0.451-0.052,0.791-0.432,0.791-0.885V8.638c0-0.453-0.34-0.834-0.791-0.885
		L17.45,7.609c-0.171-0.643-0.421-1.261-0.747-1.84l0.761-0.963c0.281-0.354,0.252-0.862-0.065-1.184l-1.483-1.486
		c-0.32-0.322-0.831-0.351-1.186-0.067l-0.934,0.74c-0.606-0.356-1.256-0.629-1.935-0.811l-0.142-1.209
		C11.664,0.34,11.284,0.001,10.833,0H8.728C8.274,0,7.895,0.339,7.843,0.789L7.702,1.998C7.004,2.185,6.336,2.467,5.718,2.836
		L4.747,2.069c-0.354-0.28-0.862-0.252-1.184,0.067L2.075,3.625c-0.321,0.319-0.35,0.829-0.067,1.184l0.811,1.025
		C2.495,6.421,2.25,7.043,2.086,7.693L0.789,7.84C0.338,7.894,0,8.274-0.001,8.726v2.105c0,0.452,0.338,0.832,0.789,0.886
		L2.157,11.875z M9.782,6.18c1.92,0.003,3.476,1.559,3.479,3.479c-0.002,1.922-1.558,3.479-3.479,3.481
		c-1.922-0.002-3.478-1.56-3.479-3.481C6.306,7.739,7.86,6.184,9.782,6.18z"/>
	<path fill="#333738" d="M29.825,12.042l-1.062-0.894c-0.328-0.277-0.811-0.264-1.121,0.03l-0.582,0.547
		c-0.498-0.238-1.023-0.408-1.565-0.504l-0.163-0.808c-0.087-0.418-0.473-0.708-0.896-0.673L23.05,9.859
		c-0.426,0.036-0.757,0.384-0.771,0.811l-0.027,0.821c-0.531,0.19-1.034,0.453-1.493,0.782l-0.698-0.462
		c-0.354-0.235-0.832-0.168-1.104,0.157l-0.896,1.067c-0.273,0.326-0.266,0.808,0.028,1.118l0.608,0.652
		c-0.211,0.479-0.358,0.979-0.445,1.494l-0.879,0.177c-0.418,0.084-0.708,0.469-0.675,0.897l0.116,1.383
		c0.039,0.424,0.387,0.758,0.813,0.771l0.945,0.029c0.173,0.448,0.396,0.877,0.673,1.276l-0.531,0.797
		c-0.234,0.354-0.166,0.831,0.16,1.106l1.063,0.896c0.328,0.275,0.811,0.267,1.121-0.028l0.691-0.648
		c0.451,0.212,0.934,0.371,1.423,0.463l0.188,0.952c0.09,0.418,0.476,0.706,0.896,0.672l1.391-0.118
		c0.426-0.037,0.754-0.384,0.77-0.81l0.031-0.933c0.507-0.179,0.984-0.422,1.428-0.722l0.766,0.505
		c0.355,0.236,0.83,0.168,1.105-0.156l0.896-1.063c0.277-0.324,0.267-0.809-0.024-1.114L30,19.98
		c0.229-0.479,0.393-0.982,0.484-1.502l0.842-0.17c0.419-0.086,0.708-0.472,0.676-0.896l-0.12-1.384
		c-0.032-0.425-0.386-0.757-0.813-0.771l-0.844-0.027c-0.175-0.491-0.41-0.957-0.705-1.386l0.463-0.694
		C30.223,12.797,30.152,12.318,29.825,12.042z M24.607,20.036c-1.5,0.071-2.773-1.087-2.846-2.588
		c-0.068-1.422,0.973-2.656,2.387-2.829c1.502-0.071,2.773,1.088,2.847,2.589C27.063,18.63,26.021,19.864,24.607,20.036z"/>
	<path fill="#A99465" d="M7.728,24.425c-0.43,0.046-0.758,0.405-0.762,0.837l-0.011,0.857c-0.007,0.433,0.312,0.799,0.74,0.854
		l0.633,0.08c0.104,0.385,0.254,0.75,0.447,1.098l-0.408,0.507c-0.272,0.329-0.249,0.815,0.053,1.127l0.6,0.61
		c0.302,0.313,0.784,0.348,1.127,0.078l0.507-0.391c0.354,0.212,0.731,0.377,1.127,0.491l0.067,0.651
		c0.044,0.428,0.403,0.758,0.835,0.762L13.542,32c0.432,0.007,0.8-0.313,0.854-0.742l0.076-0.617
		c0.428-0.104,0.835-0.266,1.223-0.476l0.476,0.383c0.338,0.272,0.819,0.252,1.128-0.05l0.614-0.602
		c0.31-0.306,0.342-0.787,0.078-1.129l-0.363-0.475c0.224-0.372,0.396-0.771,0.517-1.188l0.563-0.062
		c0.429-0.045,0.757-0.399,0.761-0.835l0.01-0.857c0.008-0.433-0.313-0.8-0.74-0.854l-0.551-0.067
		c-0.104-0.412-0.261-0.813-0.461-1.188l0.34-0.423c0.271-0.336,0.25-0.818-0.053-1.127l-0.601-0.613
		c-0.304-0.311-0.786-0.346-1.127-0.079l-0.409,0.313c-0.386-0.23-0.803-0.412-1.237-0.533l-0.054-0.534
		c-0.044-0.431-0.404-0.757-0.835-0.763l-0.86-0.01c-0.432-0.009-0.798,0.313-0.852,0.739l-0.068,0.529
		c-0.447,0.11-0.878,0.292-1.279,0.521l-0.425-0.347c-0.335-0.272-0.819-0.251-1.127,0.051L8.521,21.58
		c-0.31,0.3-0.343,0.786-0.078,1.126l0.362,0.469c-0.21,0.375-0.376,0.771-0.484,1.189L7.728,24.425z M13.27,23.453
		c1.233,0.063,2.184,1.111,2.122,2.347c-0.059,1.167-1.007,2.093-2.175,2.123c-1.233-0.063-2.185-1.112-2.123-2.345
		C11.152,24.409,12.102,23.484,13.27,23.453z"/>
</g>
</svg>
