<?xml version="1.0" encoding="utf-8"?>
<!-- Generator: Adobe Illustrator 16.0.0, SVG Export Plug-In . SVG Version: 6.00 Build 0)  -->
<!DOCTYPE svg PUBLIC "-//W3C//DTD SVG 1.1//EN" "http://www.w3.org/Graphics/SVG/1.1/DTD/svg11.dtd">
<svg version="1.1" id="Layer_1" xmlns="http://www.w3.org/2000/svg" xmlns:xlink="http://www.w3.org/1999/xlink" x="0px" y="0px"
	 width="32px" height="32px" viewBox="0 0 32 32" enable-background="new 0 0 32 32" xml:space="preserve">
<g>
	<path fill="#333738" d="M22.717,0H9.283C7.987,0,6.934,1.054,6.934,2.35v27.3c0,1.295,1.054,2.35,2.349,2.35h13.434
		c1.295,0,2.35-1.055,2.35-2.35V2.35C25.064,1.054,24.012,0,22.717,0z M8,4.267h15.998v20.267H8V4.267z M9.283,1.067h13.434
		c0.707,0,1.281,0.575,1.281,1.282V3.2H8V2.35C8,1.643,8.576,1.067,9.283,1.067z M22.717,30.932H9.283
		c-0.708,0-1.281-0.574-1.282-1.281v-4.049h15.998v4.049C23.998,30.355,23.424,30.932,22.717,30.932z"/>
	<path fill="#A99465" d="M16,26.132c-1.178,0.06-2.086,1.06-2.028,2.238c0.054,1.097,0.931,1.974,2.028,2.028
		c1.176,0,2.133-0.955,2.133-2.133C18.133,27.089,17.176,26.132,16,26.132z M16,29.332c-0.59,0-1.067-0.479-1.067-1.068
		c0.001-0.59,0.48-1.063,1.069-1.063l0,0c0.59,0,1.068,0.479,1.068,1.067c0,0.59-0.479,1.066-1.07,1.066V29.332z"/>
	<path fill="#333738" d="M13.867,2.667H16c0.295,0,0.534-0.239,0.534-0.534S16.294,1.6,16,1.6h-2.133
		c-0.294,0-0.534,0.238-0.534,0.533S13.571,2.667,13.867,2.667L13.867,2.667z M17.6,2.667h0.533c0.297,0,0.533-0.239,0.533-0.534
		S18.43,1.6,18.133,1.6H17.6c-0.293,0-0.533,0.238-0.533,0.533S17.307,2.667,17.6,2.667z"/>
</g>
</svg>
