<?xml version="1.0" encoding="utf-8"?>
<!-- Generator: Adobe Illustrator 16.0.0, SVG Export Plug-In . SVG Version: 6.00 Build 0)  -->
<!DOCTYPE svg PUBLIC "-//W3C//DTD SVG 1.1//EN" "http://www.w3.org/Graphics/SVG/1.1/DTD/svg11.dtd">
<svg version="1.1" id="Layer_1" xmlns="http://www.w3.org/2000/svg" xmlns:xlink="http://www.w3.org/1999/xlink" x="0px" y="0px"
	 width="32px" height="32px" viewBox="0 0 32 32" enable-background="new 0 0 32 32" xml:space="preserve">
<g>
	<path fill="#333738" d="M3.86,30.034c-0.607,0-1.196-0.097-1.753-0.289l-1.266-0.438l0.973-0.923
		c1.026-0.948,1.617-2.278,1.634-3.678C1.221,22.236,0,19.157,0,15.999C0,8.261,7.177,1.966,16,1.966c8.82,0,16,6.295,16,14.033
		c0,7.74-7.176,14.034-16,14.034c-2.6,0.005-5.168-0.561-7.527-1.649C7.601,29.001,5.845,30.034,3.86,30.034z M8.282,26.475
		l0.466,0.235c2.196,1.11,4.703,1.696,7.25,1.696c7.927,0,14.374-5.565,14.374-12.405C30.372,9.16,23.925,3.594,16,3.594
		c-7.929,0-14.375,5.568-14.375,12.407c0,2.842,1.144,5.623,3.224,7.825l0.211,0.227l0.01,0.309c0.061,1.438-0.34,2.854-1.144,4.05
		c1.883-0.027,3.615-1.343,3.946-1.606L8.282,26.475L8.282,26.475z"/>
	<path fill="#A99465" d="M8.24,19.839c-0.597,0-1.083-0.047-1.456-0.14c-0.375-0.094-0.632-0.19-0.774-0.286
		c-0.036-0.036-0.049-0.12-0.042-0.249c0.01-0.128,0.031-0.262,0.061-0.396c0.031-0.141,0.072-0.263,0.12-0.369
		c0.051-0.105,0.097-0.152,0.141-0.146c0.232,0.08,0.482,0.161,0.753,0.233c0.272,0.074,0.618,0.111,1.036,0.111
		c0.429,0,0.789-0.062,1.089-0.187c0.28-0.099,0.462-0.37,0.446-0.666c0.009-0.259-0.1-0.506-0.294-0.677
		c-0.197-0.174-0.547-0.355-1.054-0.555C7.99,16.408,7.73,16.29,7.484,16.162c-0.236-0.122-0.453-0.275-0.648-0.456
		c-0.188-0.174-0.337-0.384-0.439-0.619c-0.113-0.271-0.167-0.562-0.161-0.854c0-0.269,0.052-0.521,0.153-0.762
		c0.105-0.242,0.267-0.456,0.474-0.621c0.213-0.173,0.487-0.311,0.821-0.414c0.334-0.102,0.732-0.153,1.196-0.153
		c0.302,0,0.554,0.008,0.753,0.02c0.2,0.015,0.364,0.032,0.494,0.054c0.13,0.023,0.234,0.049,0.316,0.074
		c0.08,0.027,0.155,0.049,0.227,0.066c0.063,0.027,0.092,0.104,0.092,0.231c-0.002,0.28-0.071,0.557-0.2,0.805
		c-0.063,0.11-0.125,0.157-0.188,0.14c-0.205-0.058-0.411-0.105-0.62-0.146c-0.251-0.054-0.508-0.08-0.766-0.081
		c-0.509,0-0.857,0.07-1.049,0.214c-0.186,0.131-0.293,0.346-0.287,0.573c0,0.259,0.107,0.465,0.321,0.621
		c0.212,0.155,0.546,0.314,1,0.474c0.722,0.286,1.254,0.613,1.596,0.981c0.343,0.371,0.515,0.833,0.515,1.396
		c0,0.419-0.081,0.766-0.241,1.041c-0.155,0.268-0.375,0.495-0.642,0.654c-0.268,0.158-0.571,0.271-0.914,0.34
		c-0.346,0.064-0.697,0.102-1.048,0.102L8.24,19.839L8.24,19.839z M17.863,19.771c-0.188,0-0.309-0.028-0.365-0.095
		c-0.061-0.063-0.086-0.183-0.086-0.358v-4.676c-0.357,0.578-0.633,1.027-0.82,1.343L16.17,16.68l-0.161,0.262
		c-0.058,0.107-0.122,0.214-0.193,0.313c-0.032,0.04-0.096,0.062-0.194,0.062h-0.215c-0.114,0-0.191-0.021-0.227-0.062
		c-0.062-0.082-0.115-0.169-0.161-0.26l-1.36-2.323v4.727c0.005,0.096-0.016,0.189-0.06,0.274c-0.039,0.066-0.143,0.101-0.314,0.101
		h-0.559c-0.112,0.002-0.224-0.021-0.329-0.063c-0.092-0.038-0.139-0.171-0.139-0.393V12.91c0-0.179,0.032-0.296,0.1-0.354
		c0.066-0.058,0.161-0.085,0.286-0.085h0.668c0.099,0,0.181,0.013,0.249,0.038c0.086,0.046,0.159,0.115,0.207,0.201l1.775,2.832
		l1.775-2.803c0.074-0.161,0.236-0.266,0.414-0.271h0.732c0.172,0,0.27,0.035,0.297,0.106c0.025,0.071,0.035,0.186,0.035,0.347v6.46
		c0,0.138-0.018,0.233-0.052,0.298c-0.035,0.063-0.14,0.094-0.308,0.094L17.863,19.771L17.863,19.771z M22.311,19.839
		c-0.597,0-1.082-0.047-1.455-0.14c-0.373-0.094-0.631-0.19-0.772-0.286c-0.034-0.036-0.049-0.12-0.038-0.249
		c0.008-0.128,0.023-0.262,0.061-0.396c0.026-0.141,0.068-0.263,0.119-0.369c0.049-0.105,0.096-0.152,0.141-0.146
		c0.232,0.08,0.482,0.161,0.755,0.233c0.271,0.074,0.614,0.111,1.036,0.111c0.427,0,0.789-0.062,1.089-0.187
		c0.278-0.099,0.461-0.37,0.446-0.666c0.008-0.259-0.104-0.506-0.297-0.677c-0.194-0.174-0.545-0.355-1.055-0.555
		c-0.268-0.104-0.523-0.222-0.779-0.354c-0.234-0.123-0.453-0.275-0.647-0.456c-0.188-0.173-0.339-0.384-0.44-0.619
		c-0.113-0.27-0.168-0.562-0.16-0.854c0-0.269,0.056-0.521,0.152-0.762c0.104-0.242,0.268-0.456,0.477-0.621
		c0.213-0.173,0.485-0.311,0.818-0.414c0.336-0.102,0.732-0.153,1.196-0.153c0.304,0,0.556,0.008,0.753,0.02
		c0.202,0.015,0.366,0.032,0.495,0.054c0.128,0.022,0.233,0.049,0.313,0.074c0.08,0.027,0.154,0.049,0.228,0.066
		c0.063,0.027,0.094,0.104,0.094,0.231c-0.002,0.281-0.067,0.557-0.198,0.805c-0.063,0.11-0.125,0.157-0.188,0.14
		c-0.206-0.058-0.411-0.105-0.621-0.146c-0.251-0.053-0.51-0.079-0.768-0.08c-0.51,0-0.857,0.07-1.049,0.214
		c-0.188,0.131-0.295,0.345-0.287,0.573c0,0.259,0.106,0.465,0.319,0.622c0.214,0.154,0.548,0.313,1.001,0.473
		c0.723,0.286,1.251,0.613,1.598,0.981c0.342,0.372,0.515,0.833,0.515,1.396c0,0.419-0.08,0.766-0.241,1.041
		c-0.15,0.271-0.374,0.495-0.645,0.653c-0.269,0.158-0.568,0.271-0.912,0.341c-0.346,0.063-0.695,0.102-1.047,0.102v-0.003
		L22.311,19.839L22.311,19.839z"/>
</g>
</svg>
