<?xml version="1.0" encoding="utf-8"?>
<!-- Generator: Adobe Illustrator 16.0.0, SVG Export Plug-In . SVG Version: 6.00 Build 0)  -->
<!DOCTYPE svg PUBLIC "-//W3C//DTD SVG 1.1//EN" "http://www.w3.org/Graphics/SVG/1.1/DTD/svg11.dtd">
<svg version="1.1" id="Layer_1" xmlns="http://www.w3.org/2000/svg" xmlns:xlink="http://www.w3.org/1999/xlink" x="0px" y="0px"
	 width="32px" height="32px" viewBox="0 0 32 32" enable-background="new 0 0 32 32" xml:space="preserve">
<g>
	<g>
		<path fill="#333738" d="M11.55,5.185c0.368,0.203,0.792,0.319,1.24,0.319h6.353c0.477,0,0.922-0.133,1.303-0.359
			c0.688-0.408,1.172-1.127,1.25-1.966c0.008-0.079,0.014-0.16,0.014-0.241V1.612C21.707,1.53,21.703,1.45,21.695,1.37V0.686
			c0-0.332-0.234-0.608-0.549-0.671C21.102,0.005,21.057,0,21.012,0H10.918c-0.046,0-0.09,0.004-0.134,0.014
			c-0.313,0.063-0.551,0.339-0.551,0.672v0.708c-0.006,0.073-0.011,0.145-0.011,0.219v1.326c0,0.073,0.005,0.146,0.011,0.218
			C10.31,4.03,10.819,4.78,11.55,5.185z"/>
		<path fill="#333738" d="M27.234,0.805h-2.855V3.58h1.529v25.645H6.091V3.58h1.461V0.805H4.767c-0.774,0-1.405,0.632-1.405,1.408
			v28.38C3.361,31.369,3.992,32,4.767,32h22.466c0.774,0,1.406-0.631,1.406-1.407V2.213C28.639,1.437,28.008,0.805,27.234,0.805z"/>
	</g>
	<polygon fill="#A99465" points="22.248,12.765 20.396,10.913 14.204,17.107 11.602,14.51 9.751,16.355 12.351,18.959 
		12.351,18.959 14.204,20.811 16.055,18.959 16.055,18.959 	"/>
</g>
</svg>
