<?xml version="1.0" encoding="utf-8"?>
<!-- Generator: Adobe Illustrator 16.0.0, SVG Export Plug-In . SVG Version: 6.00 Build 0)  -->
<!DOCTYPE svg PUBLIC "-//W3C//DTD SVG 1.1//EN" "http://www.w3.org/Graphics/SVG/1.1/DTD/svg11.dtd">
<svg version="1.1" id="Layer_1" xmlns="http://www.w3.org/2000/svg" xmlns:xlink="http://www.w3.org/1999/xlink" x="0px" y="0px"
	 width="32px" height="32px" viewBox="0 0 32 32" enable-background="new 0 0 32 32" xml:space="preserve">
<g>
	<path fill="#A99465" d="M9.36,16.42h4.467v2.234H9.36V16.42z M9.36,20.889h4.467v2.233H9.36V20.889z M9.36,7.588h4.467v2.234H9.36
		V7.588z M9.36,12.055h4.467v2.234H9.36V12.055z M18.066,16.42h4.465v2.234h-4.465V16.42z M18.066,20.889h4.465v2.233h-4.465V20.889
		z M18.066,7.588h4.465v2.234h-4.465V7.588z M18.066,12.055h4.465v2.234h-4.465V12.055z"/>
	<path fill="#333738" d="M24.232,2.237V0H7.846v2.248H3.305L3.315,32h25.38V2.252l-4.467-0.014L24.232,2.237z M17.232,29.766V25.15
		h-2.234v4.615h-9.48L5.54,4.481h4.542v-2.25h11.913v2.231l4.469,0.014v25.29H17.232z"/>
</g>
</svg>
