<?xml version="1.0" encoding="utf-8"?>
<!-- Generator: Adobe Illustrator 16.0.0, SVG Export Plug-In . SVG Version: 6.00 Build 0)  -->
<!DOCTYPE svg PUBLIC "-//W3C//DTD SVG 1.1//EN" "http://www.w3.org/Graphics/SVG/1.1/DTD/svg11.dtd">
<svg version="1.1" id="Layer_1" xmlns="http://www.w3.org/2000/svg" xmlns:xlink="http://www.w3.org/1999/xlink" x="0px" y="0px"
	 width="32px" height="32px" viewBox="0 0 32 32" enable-background="new 0 0 32 32" xml:space="preserve">
<path fill="#A99465" d="M15.814,16.633c0,0,2.387,1.547,3.396,3.316l3.634,0.895L24.5,19.5l-1.156-2.693L19.241,16l-2.366-0.015
	L15.814,16.633z"/>
<polygon fill="#A99465" points="4.438,24.75 18.469,25.313 18.469,22.125 14.999,20.406 9.688,20 4.625,22.523 "/>
<g>
	<polygon fill="#262B56" points="17.221,4.806 17.221,4.806 17.223,4.806 	"/>
	<g>
		<path fill="#333738" d="M19.707,21.986c-0.456-0.852-1.425-1.527-2.579-2.041c-1.765-0.782-3.949-1.182-5.392-1.182
			c-0.247,0-0.523,0.018-0.812,0.041c-0.603,0.047-1.271,0.146-1.962,0.301c-2.627,0.578-5.48,1.896-5.48,3.955v3.223h16.511v-3.223
			C19.993,22.678,19.887,22.32,19.707,21.986z M18.031,24.242H5.443v-1.182c0-0.479,1.555-1.36,3.521-1.869
			c0.877-0.229,1.827-0.387,2.772-0.387c1.854,0,3.759,0.573,4.98,1.182c0.8,0.396,1.313,0.803,1.313,1.074L18.031,24.242
			L18.031,24.242z"/>
		<path fill="#333738" d="M9.679,17.1c0.607,0.367,1.305,0.594,2.059,0.594c0.223,0,0.437-0.03,0.649-0.066
			c0.553-0.091,1.066-0.292,1.522-0.589c0.854-0.554,1.487-1.418,1.775-2.446c0.105-0.382,0.182-0.776,0.182-1.194
			c0-0.091-0.02-0.174-0.026-0.263c-0.104-1.749-1.2-3.203-2.721-3.768C12.686,9.203,12.226,9.1,11.736,9.1v0.002
			c-2.28,0-4.127,1.921-4.127,4.295C7.609,14.984,8.446,16.355,9.679,17.1z M11.736,11.141v0.002c1.198,0,2.168,1.009,2.168,2.256
			c0,0.771-0.397,1.421-0.968,1.827c-0.301,0.213-0.644,0.356-1.028,0.39c-0.06,0.005-0.11,0.036-0.172,0.036
			c-1.196,0-2.167-1.011-2.167-2.256S10.54,11.141,11.736,11.141z"/>
	</g>
	<path fill="#333738" d="M30.814,22.425c-0.039-0.476-0.442-0.846-0.92-0.846l-0.084,0.004c-0.455,0.038-0.817,0.413-0.849,0.892
		l0.099,5.477l-5.424,0.094l0.516-0.533c0.17-0.176,0.264-0.404,0.264-0.658c-0.009-0.246-0.107-0.479-0.284-0.646
		c-0.338-0.325-0.901-0.342-1.248-0.036l-2.129,2.196c-0.354,0.363-0.348,0.949,0.022,1.31l2.141,2.069
		c0.174,0.167,0.402,0.261,0.645,0.261c0.254,0,0.488-0.103,0.666-0.284c0.174-0.179,0.267-0.412,0.264-0.66
		c-0.008-0.205-0.076-0.396-0.202-0.557l-0.615-0.607l6.353-0.104c0.506-0.015,0.914-0.435,0.91-0.938L30.814,22.425z"/>
	<path fill="#333738" d="M11.222,2.316L9.404,0.564L9.08,0.253C8.729-0.09,8.123-0.087,7.773,0.274
		C7.689,0.36,7.628,0.46,7.585,0.564C7.443,0.903,7.512,1.308,7.792,1.583L8.326,2.1L1.979,2.21
		C1.472,2.216,1.063,2.634,1.067,3.146v0.001c0,0.001,0,0.001,0,0.002l0.114,6.396c0.004,0.504,0.418,0.913,0.921,0.913h0.017
		c0.509-0.004,0.919-0.423,0.914-0.941L2.936,4.044l5.423-0.096L7.846,4.479C7.508,4.827,7.499,5.374,7.829,5.746l0.038,0.042
		C8.224,6.137,8.83,6.125,9.176,5.767l2.067-2.141c0.171-0.178,0.262-0.411,0.259-0.659C11.497,2.722,11.397,2.49,11.222,2.316z"/>
	<g>
		<path fill="#333738" d="M25.477,18.766c0-2.854-5.5-4.292-8.254-4.292c-0.138,0-0.291,0.011-0.438,0.018
			c-0.163,0.8-0.502,1.518-0.969,2.143c0.466-0.063,0.938-0.121,1.411-0.121c3.063,0,6.295,1.566,6.295,2.258v1.182h-4.311
			c0.768,0.564,1.366,1.238,1.646,2.041h4.619V18.77h0.002v-0.004H25.477z"/>
		<path fill="#333738" d="M15.054,9.102c0-1.245,0.97-2.255,2.168-2.255c1.192,0,2.166,1.01,2.166,2.255
			c0,1.246-0.974,2.256-2.166,2.256c-0.272,0-0.527-0.066-0.771-0.162c0.296,0.675,0.463,1.408,0.466,2.171
			c0.104,0.008,0.198,0.029,0.306,0.029c2.276,0,4.125-1.921,4.125-4.295c0-2.373-1.851-4.295-4.127-4.296
			c-2.011,0.002-3.68,1.494-4.049,3.471c0.708,0.211,1.36,0.574,1.929,1.079C15.094,9.268,15.054,9.19,15.054,9.102z"/>
		<path fill="#6CC28B" d="M14.513,16.559c-0.01,0.008-0.019,0.017-0.026,0.021C14.494,16.57,14.503,16.564,14.513,16.559z"/>
		<path fill="#6CC28B" d="M19.241,21.354c0.021,0.021,0.036,0.041,0.057,0.063C19.277,21.395,19.262,21.373,19.241,21.354z"/>
		<path fill="#6CC28B" d="M15.013,15.985c-0.006,0.005-0.009,0.009-0.014,0.015C15.004,15.995,15.007,15.991,15.013,15.985z"/>
		<path fill="#6CC28B" d="M19.707,21.986c-0.105-0.2-0.248-0.394-0.409-0.57C19.458,21.598,19.6,21.786,19.707,21.986L19.707,21.986
			z"/>
		<path fill="#6CC28B" d="M13.909,17.034c0.001,0,0.001,0,0.002,0c0.205-0.136,0.396-0.287,0.574-0.454
			C14.309,16.747,14.116,16.898,13.909,17.034z"/>
		<path fill="#6CC28B" d="M14.999,16c-0.146,0.201-0.31,0.388-0.486,0.557C14.69,16.389,14.853,16.201,14.999,16z"/>
	</g>
</g>
</svg>
