<?xml version="1.0" encoding="utf-8"?>
<!-- Generator: Adobe Illustrator 16.0.0, SVG Export Plug-In . SVG Version: 6.00 Build 0)  -->
<!DOCTYPE svg PUBLIC "-//W3C//DTD SVG 1.1//EN" "http://www.w3.org/Graphics/SVG/1.1/DTD/svg11.dtd">
<svg version="1.1" id="Layer_1" xmlns="http://www.w3.org/2000/svg" xmlns:xlink="http://www.w3.org/1999/xlink" x="0px" y="0px"
	 width="32px" height="32px" viewBox="0 0 32 32" enable-background="new 0 0 32 32" xml:space="preserve">
<g>
	<g>
		<path fill="#333738" d="M12.933,3.581c-0.378-0.384-1.038-0.392-1.43-0.002c-0.193,0.19-0.297,0.441-0.299,0.712
			c-0.001,0.254,0.092,0.494,0.261,0.681l0.61,0.613H5.126c-0.556,0-1.01,0.452-1.011,1.013v7c0,0.56,0.454,1.015,1.012,1.015h0.004
			c0.555,0,1.007-0.451,1.009-1.013V7.612h5.932l-0.571,0.57c-0.193,0.191-0.298,0.442-0.301,0.712
			c-0.001,0.27,0.104,0.523,0.3,0.721c0.368,0.373,1.008,0.39,1.39,0.039l2.346-2.34c0.19-0.193,0.294-0.445,0.295-0.717
			c-0.001-0.269-0.107-0.522-0.297-0.715L12.933,3.581z"/>
		<path fill="#A99465" d="M28.745,18.473c-0.036-0.523-0.479-0.938-1.009-0.938l-0.072,0.004c-0.406,0.025-0.749,0.298-0.885,0.667
			h-0.063v6.276h-5.933l0.571-0.573c0.19-0.192,0.295-0.443,0.301-0.714c0-0.271-0.106-0.522-0.299-0.717
			c-0.381-0.381-1.041-0.394-1.426-0.011l-2.312,2.312c-0.192,0.188-0.298,0.438-0.3,0.712c0,0.219,0.068,0.428,0.214,0.618
			l2.389,2.404c0.19,0.19,0.444,0.299,0.716,0.299c0.268,0,0.521-0.107,0.715-0.297c0.194-0.19,0.299-0.44,0.303-0.711
			c0-0.229-0.073-0.445-0.215-0.625l-0.657-0.672h6.948c0.557,0,1.009-0.449,1.014-1.014L28.745,18.473z"/>
	</g>
	<g>
		<path fill="#A99465" d="M4.992,24.262H7.21v1.928H4.992V24.262z M4.992,26.48H7.21v1.93H4.992V26.48z M4.992,19.879H7.21v1.928
			H4.992V19.879z M4.992,22.098H7.21v1.928H4.992V22.098z M9.313,24.262h2.217v1.928H9.313V24.262z M9.313,26.48h2.217v1.93H9.313
			V26.48z M9.313,19.879h2.217v1.928H9.313V19.879z M9.313,22.098h2.217v1.928H9.313V22.098z"/>
		<path fill="#A99465" d="M12.376,17.221v-1.109H4.24v1.117H1.985L1.991,32h12.602V17.229L12.376,17.221z M8.899,30.889v-2.294
			H7.791v2.296H3.084l0.011-12.555h2.256v-1.117h5.914v1.109l2.217,0.004v12.557h-4.58H8.899z"/>
	</g>
	<g>
		<path fill="#333738" d="M20.414,8.153h2.218v1.928h-2.218V8.153z M20.414,10.372h2.218V12.3h-2.218V10.372z M20.414,3.77h2.218
			v1.929h-2.218V3.77z M20.414,5.987h2.218v1.928h-2.218V5.987z M24.734,8.153h2.218v1.928h-2.218V8.153z M24.734,10.372h2.218V12.3
			h-2.218V10.372z M24.734,3.77h2.218v1.929h-2.218V3.77z M24.734,5.987h2.218v1.928h-2.218V5.987z"/>
		<path fill="#333738" d="M27.798,1.113V0H19.66v1.118h-2.256l0.009,14.767h12.603V1.119l-2.218-0.008V1.113z M24.32,14.781v-2.294
			h-1.108v2.294h-4.706l0.012-12.556h2.254V1.108h5.916v1.107l2.221,0.008v12.558H24.32z"/>
	</g>
</g>
</svg>
