<?xml version="1.0" encoding="utf-8"?>
<!-- Generator: Adobe Illustrator 16.0.0, SVG Export Plug-In . SVG Version: 6.00 Build 0)  -->
<!DOCTYPE svg PUBLIC "-//W3C//DTD SVG 1.1//EN" "http://www.w3.org/Graphics/SVG/1.1/DTD/svg11.dtd">
<svg version="1.1" id="Layer_1" xmlns="http://www.w3.org/2000/svg" xmlns:xlink="http://www.w3.org/1999/xlink" x="0px" y="0px"
	 width="32px" height="32px" viewBox="0 0 32 32" enable-background="new 0 0 32 32" xml:space="preserve">
<g>
	<path fill="#333738" d="M25.454,32H6.545c-2.005,0-3.636-1.631-3.636-3.637V3.636C2.909,1.631,4.541,0,6.545,0h18.909
		c2.006,0,3.637,1.631,3.637,3.636v24.729C29.091,30.369,27.46,32,25.454,32z M6.545,1.455c-1.203,0-2.182,0.979-2.182,2.182v24.727
		c0,1.202,0.979,2.183,2.182,2.183h18.909c1.203,0,2.183-0.979,2.183-2.183V3.636c0-1.203-0.979-2.182-2.183-2.182L6.545,1.455
		L6.545,1.455z"/>
	<path fill="#A99465" d="M22.863,6.468c0.229,0.322,0.281,0.733,0.152,1.104L20.68,15.33c-0.111,0.37-0.341,0.693-0.654,0.92
		c-0.293,0.237-0.659,0.37-1.039,0.372h-7.853c-0.437,0-0.86-0.152-1.265-0.457c-0.388-0.281-0.683-0.675-0.846-1.126
		c-0.135-0.35-0.142-0.736-0.019-1.087c0-0.023,0.01-0.101,0.027-0.23c0.018-0.133,0.029-0.239,0.036-0.319
		C9.07,13.341,9.06,13.278,9.04,13.22c-0.02-0.054-0.028-0.111-0.025-0.167c0.011-0.063,0.034-0.125,0.069-0.18
		c0.033-0.057,0.079-0.124,0.139-0.2c0.061-0.079,0.105-0.146,0.142-0.203c0.129-0.217,0.257-0.479,0.381-0.784
		c0.125-0.304,0.211-0.567,0.257-0.783c0.018-0.085,0.019-0.172,0.004-0.258c-0.016-0.078-0.016-0.16-0.005-0.239
		c0.033-0.089,0.082-0.17,0.143-0.239c0.055-0.062,0.103-0.126,0.146-0.197c0.118-0.205,0.237-0.469,0.358-0.788
		c0.1-0.248,0.171-0.508,0.212-0.771c0.003-0.092-0.004-0.184-0.021-0.275c-0.02-0.13-0.019-0.211,0.002-0.239
		c0.041-0.101,0.106-0.19,0.188-0.261c0.102-0.101,0.166-0.166,0.187-0.192c0.108-0.15,0.228-0.391,0.362-0.726
		c0.132-0.332,0.21-0.608,0.235-0.825c0.002-0.075-0.007-0.149-0.027-0.219c-0.022-0.073-0.028-0.15-0.019-0.227
		c0.017-0.056,0.044-0.108,0.078-0.155C11.885,5.236,11.937,5.168,12,5.096c0.062-0.076,0.11-0.135,0.144-0.181
		c0.046-0.067,0.091-0.157,0.142-0.261c0.048-0.106,0.088-0.205,0.126-0.301c0.038-0.094,0.083-0.195,0.135-0.308
		c0.046-0.098,0.103-0.188,0.167-0.273c0.065-0.078,0.14-0.146,0.226-0.202c0.091-0.062,0.197-0.097,0.305-0.1
		c0.137,0,0.272,0.017,0.404,0.047l-0.007,0.028c0.142-0.039,0.287-0.065,0.434-0.078h6.47c0.425,0,0.744,0.159,0.974,0.479
		c0.229,0.322,0.277,0.693,0.152,1.115l-2.331,7.757c-0.202,0.68-0.407,1.117-0.606,1.315c-0.201,0.195-0.564,0.294-1.094,0.294
		h-7.393c-0.154,0-0.259,0.044-0.324,0.129c-0.061,0.092-0.063,0.212-0.007,0.368c0.135,0.4,0.545,0.602,1.224,0.602h7.852
		c0.171,0,0.335-0.046,0.479-0.133c0.139-0.077,0.248-0.203,0.295-0.355l2.557-8.453c0.043-0.158,0.055-0.324,0.043-0.487
		c0.197,0.074,0.374,0.202,0.502,0.369L22.863,6.468L22.863,6.468z M13.813,6.484c-0.023,0.063-0.017,0.134,0.017,0.192
		c0.033,0.053,0.089,0.081,0.168,0.081h5.174c0.078-0.001,0.154-0.03,0.219-0.081c0.065-0.047,0.114-0.116,0.139-0.193l0.18-0.549
		c0.023-0.063,0.021-0.133-0.018-0.191c-0.032-0.054-0.09-0.082-0.172-0.082H14.35c-0.079,0.002-0.156,0.03-0.218,0.082
		c-0.065,0.047-0.115,0.116-0.14,0.192L13.813,6.484z M13.107,8.674c-0.024,0.065-0.019,0.137,0.017,0.195
		c0.034,0.054,0.087,0.081,0.17,0.081h5.171c0.079-0.001,0.156-0.03,0.221-0.082c0.066-0.048,0.113-0.115,0.144-0.194l0.176-0.546
		c0.024-0.063,0.021-0.135-0.019-0.194c-0.033-0.052-0.09-0.08-0.172-0.08h-5.169c-0.079,0.001-0.156,0.03-0.218,0.08
		C13.36,7.982,13.31,8.05,13.285,8.128l-0.177,0.549L13.107,8.674z"/>
	<g>
		<path fill="#A99465" d="M22.922,20.03H9.547c-0.476,0-0.863,0.387-0.863,0.862c0,0.475,0.387,0.861,0.863,0.861h13.376
			c0.231,0,0.449-0.091,0.612-0.255c0.163-0.163,0.252-0.38,0.251-0.606C23.786,20.417,23.398,20.03,22.922,20.03z"/>
		<path fill="#A99465" d="M21.85,24.393H11.002c-0.476,0-0.863,0.39-0.863,0.863c0,0.475,0.387,0.863,0.863,0.863H21.85
			c0.478,0,0.863-0.389,0.863-0.863C22.713,24.782,22.325,24.393,21.85,24.393z"/>
	</g>
</g>
</svg>
