<?xml version="1.0" encoding="utf-8"?>
<!-- Generator: Adobe Illustrator 16.0.0, SVG Export Plug-In . SVG Version: 6.00 Build 0)  -->
<!DOCTYPE svg PUBLIC "-//W3C//DTD SVG 1.1//EN" "http://www.w3.org/Graphics/SVG/1.1/DTD/svg11.dtd">
<svg version="1.1" id="Layer_1" xmlns="http://www.w3.org/2000/svg" xmlns:xlink="http://www.w3.org/1999/xlink" x="0px" y="0px"
	 width="32px" height="32px" viewBox="0 0 32 32" enable-background="new 0 0 32 32" xml:space="preserve">
<polygon fill="#A99465" points="19.156,3.094 22.906,3.188 22.906,4.421 30.626,4.421 30.953,5.313 29.875,5.531 19.156,5.406 "/>
<polygon fill="#A99465" points="0.969,18.156 4.719,18.25 4.719,19.482 12.438,19.482 12.766,20.375 11.688,20.594 0.969,20.469 "/>
<g>
	<g>
		<g>
			<path fill="#2A2F59" d="M30.459,3.824h-7.063V3.526c0-0.662-0.484-1.197-1.084-1.197h-2.717c-0.604,0-1.091,0.535-1.091,1.197
				v9.865c0,0.661,0.486,1.195,1.091,1.195h10.859c0.604,0,1.087-0.535,1.087-1.195V5.02C31.546,4.36,31.059,3.824,30.459,3.824z
				 M19.053,3.525c0-0.331,0.241-0.6,0.543-0.6h2.717c0.299,0,0.541,0.269,0.541,0.6v0.896h7.605c0.3,0,0.545,0.269,0.545,0.598
				v0.599H19.053V3.525z M30.459,13.989H19.596c-0.302,0-0.547-0.271-0.547-0.6V6.218h11.953v7.174
				C31.002,13.721,30.759,13.99,30.459,13.989L30.459,13.989z M12.406,18.91H5.345v-0.299c0-0.66-0.486-1.197-1.086-1.197H1.541
				c-0.6,0-1.087,0.537-1.087,1.197v9.865c0,0.656,0.487,1.191,1.087,1.191h10.865c0.599,0,1.086-0.535,1.086-1.191v-8.371
				C13.493,19.445,13.005,18.91,12.406,18.91L12.406,18.91z M1,18.609c0-0.332,0.244-0.604,0.544-0.604H4.26
				c0.298,0,0.542,0.271,0.542,0.604v0.896h7.605c0.299,0,0.545,0.269,0.545,0.599v0.603H0.996v-2.095L1,18.609z M12.408,29.072
				H1.542c-0.3,0-0.546-0.271-0.546-0.6v-7.178H12.95v7.18C12.95,28.802,12.706,29.072,12.408,29.072L12.408,29.072z"/>
			<path fill="#333738" d="M12.406,30.125H1.542C0.691,30.125,0,29.385,0,28.477v-9.865C0,17.7,0.691,16.96,1.542,16.96H4.26
				c0.801,0,1.46,0.66,1.533,1.498h6.613c0.001,0,0.002,0,0.004,0c0.389,0,0.76,0.156,1.046,0.438
				c0.312,0.313,0.491,0.754,0.491,1.209v8.371C13.947,29.385,13.256,30.125,12.406,30.125z M1.451,21.754v6.719
				c0,0.088,0.055,0.146,0.091,0.146h10.864c0.036,0,0.089-0.057,0.089-0.145V21.75L1.451,21.754L1.451,21.754z M1.451,20.248
				h11.048v-0.145c0-0.086-0.054-0.146-0.091-0.146h-8.06v-1.354c0-0.088-0.053-0.146-0.088-0.146H1.544
				c-0.037,0-0.09,0.059-0.09,0.146L1.451,20.248z M30.459,15.041H19.596c-0.851,0-1.541-0.74-1.541-1.65V3.526
				c0-0.911,0.69-1.651,1.541-1.651h2.717c0.799,0,1.459,0.658,1.533,1.495h6.613C31.311,3.37,32,4.111,32,5.02v8.371
				C32,14.301,31.311,15.041,30.459,15.041z M19.503,6.673v6.716c0,0.088,0.056,0.146,0.093,0.146h10.863
				c0.072-0.049,0.089-0.094,0.089-0.142V6.674L19.503,6.673L19.503,6.673z M19.507,5.164H30.55V5.02
				c0-0.086-0.056-0.144-0.091-0.144h-8.063V3.525c0-0.088-0.051-0.146-0.084-0.146h-2.717c-0.035,0-0.093,0.057-0.093,0.146
				L19.507,5.164L19.507,5.164z"/>
		</g>
	</g>
	<path fill="#333738" d="M29.717,28.949H15.499c-0.502,0-0.909-0.406-0.909-0.91c0-0.502,0.407-0.908,0.909-0.908h13.31V16.47
		c0-0.502,0.405-0.909,0.908-0.909c0.502,0,0.909,0.407,0.909,0.909v11.569C30.626,28.543,30.219,28.949,29.717,28.949z
		 M2.46,16.688c-0.502,0-0.909-0.403-0.909-0.91V4.214c0-0.502,0.406-0.909,0.909-0.909h14.22c0.502,0,0.907,0.407,0.907,0.909
		s-0.405,0.91-0.907,0.91H3.369v10.654C3.369,16.281,2.962,16.688,2.46,16.688z"/>
</g>
</svg>
