<?xml version="1.0" encoding="utf-8"?>
<!-- Generator: Adobe Illustrator 16.0.0, SVG Export Plug-In . SVG Version: 6.00 Build 0)  -->
<!DOCTYPE svg PUBLIC "-//W3C//DTD SVG 1.1//EN" "http://www.w3.org/Graphics/SVG/1.1/DTD/svg11.dtd">
<svg version="1.1" id="Layer_1" xmlns="http://www.w3.org/2000/svg" xmlns:xlink="http://www.w3.org/1999/xlink" x="0px" y="0px"
	 width="32px" height="32px" viewBox="0 0 32 32" enable-background="new 0 0 32 32" xml:space="preserve">
<g>
	<g>
		<g>
			<path fill="#27A8E0" d="M16.548,0.603C8.039-0.013,0.644,6.387,0.027,14.896c0,0.004-0.002,0.008-0.002,0.013
				c-0.034,0.614-0.034,1.233,0,1.85c0.009,0.13,0.121,0.231,0.253,0.224c0.092-0.007,0.174-0.064,0.208-0.151
				c0.002-0.023,0.002-0.049,0-0.072c0-0.083,0-0.161,0-0.244C0.975,9.622,6.818,4.42,13.545,4.879
				c3.447,0.253,6.622,1.975,8.715,4.728c0.049,0.063,0.128,0.098,0.21,0.088l6.421-0.643c0.128-0.012,0.222-0.127,0.21-0.254
				c-0.002-0.032-0.012-0.061-0.027-0.09C26.567,4.033,21.839,0.973,16.548,0.603"/>
			<path fill="#262B56" d="M29.422,20.396c0.306-0.023,0.573,0.202,0.599,0.508c0.007,0.091-0.008,0.181-0.044,0.263
				c-2.845,8.027-11.657,12.227-19.686,9.381c-4.38-1.555-7.825-5-9.378-9.381c-0.121-0.281,0.009-0.606,0.291-0.728
				c0.083-0.036,0.172-0.05,0.262-0.043h2.173c0.242-0.002,0.461,0.145,0.554,0.367c2.621,6.22,9.786,9.14,16.009,6.519
				c2.939-1.238,5.278-3.578,6.519-6.519c0.092-0.223,0.313-0.369,0.553-0.367H29.422z"/>
			<path fill="#262B56" d="M31.474,10.558l-15.675,1.491c-1.786,0.166-3.188,1.598-3.324,3.386
				c-0.015,0.451,0.051,0.903,0.195,1.334c0.591,1.936,2.64,3.022,4.573,2.43c0.235-0.072,0.461-0.168,0.677-0.286l13.852-7.532
				c0.212-0.116,0.292-0.384,0.176-0.595c-0.085-0.157-0.253-0.244-0.431-0.228 M16.618,17.761
				c-1.111,0.338-2.289-0.291-2.625-1.404c-0.338-1.112,0.291-2.287,1.403-2.625c1.111-0.338,2.284,0.287,2.624,1.397
				c0.34,1.111-0.283,2.288-1.396,2.628C16.624,17.757,16.622,17.761,16.618,17.761"/>
		</g>
	</g>
</g>
</svg>
