<?xml version="1.0" encoding="utf-8"?>
<!-- Generator: Adobe Illustrator 16.0.0, SVG Export Plug-In . SVG Version: 6.00 Build 0)  -->
<!DOCTYPE svg PUBLIC "-//W3C//DTD SVG 1.1//EN" "http://www.w3.org/Graphics/SVG/1.1/DTD/svg11.dtd">
<svg version="1.1" id="Layer_1" xmlns="http://www.w3.org/2000/svg" xmlns:xlink="http://www.w3.org/1999/xlink" x="0px" y="0px"
	 width="32px" height="32px" viewBox="0 0 32 32" enable-background="new 0 0 32 32" xml:space="preserve">
<g>
	<g>
		<g>
			<path fill="#262B56" d="M24.489,0.857H7.511c-2.271,0-4.117,1.847-4.117,4.117v15.798c0,2.271,1.847,4.118,4.117,4.118h3.285
				l4.314,5.801c0.45,0.602,1.327,0.604,1.781-0.002l4.313-5.799h3.285c2.27,0,4.117-1.848,4.117-4.118V4.975
				C28.606,2.704,26.759,0.857,24.489,0.857z M26.397,20.772c0,1.036-0.875,1.91-1.908,1.91H20.62c-0.355,0-0.663,0.159-0.889,0.461
				L16,28.202l-3.733-5.062c-0.224-0.299-0.531-0.458-0.887-0.458H7.511c-1.033,0-1.908-0.874-1.908-1.91V4.975
				c0-1.033,0.875-1.906,1.908-1.906h16.979c1.033,0,1.908,0.873,1.908,1.906V20.772z"/>
			<path fill="#27A8E0" d="M16.115,7.254c-3.62,0-4.971,2.719-4.971,4.433c0,0.199,0.136,0.372,0.334,0.372h1.763
				c0.163,0,0.335-0.133,0.335-0.332c0-0.121,0.028-2.043,2.577-2.043c0.642,0,2.349,0,2.349,2.081c0,0.756-0.664,1.632-2.024,2.672
				c-1.17,0.927-1.809,1.726-1.809,3.267v0.459c0,0.16,0.136,0.332,0.335,0.332h1.763c0.16,0,0.332-0.133,0.332-0.332v-0.459
				c0-0.59,0.18-0.792,0.944-1.403c1.099-0.903,2.889-2.372,2.889-4.497C20.888,10.447,20.333,7.254,16.115,7.254z"/>
			<path fill="#27A8E0" d="M16.69,21.353h-1.765c-0.16,0-0.332,0.136-0.332,0.335v1.417c0,0.161,0.134,0.332,0.332,0.332h1.765
				c0.161,0,0.333-0.134,0.333-0.332v-1.417C17.023,21.488,16.852,21.353,16.69,21.353z"/>
		</g>
	</g>
</g>
</svg>
