<?xml version="1.0" encoding="utf-8"?>
<!-- Generator: Adobe Illustrator 16.0.0, SVG Export Plug-In . SVG Version: 6.00 Build 0)  -->
<!DOCTYPE svg PUBLIC "-//W3C//DTD SVG 1.1//EN" "http://www.w3.org/Graphics/SVG/1.1/DTD/svg11.dtd">
<svg version="1.1" id="Layer_1" xmlns="http://www.w3.org/2000/svg" xmlns:xlink="http://www.w3.org/1999/xlink" x="0px" y="0px"
	 width="32px" height="32px" viewBox="0 0 32 32" enable-background="new 0 0 32 32" xml:space="preserve">
<g>
	<g>
		<g>
			<path fill="#27A8E0" d="M29.396,13.965c-0.323-5.357-4.239-9.979-9.516-11.126c-0.68-0.146-1.376-0.235-2.077-0.264l0.104,11.491
				L29.396,13.965z"/>
			<path fill="#262B56" d="M14.114,17.924L14.002,5.209C7.606,5.585,2.547,10.936,2.604,17.412
				c0.049,5.613,4.061,10.549,9.536,11.738c0.877,0.189,1.782,0.281,2.688,0.274c3.236-0.029,6.27-1.316,8.538-3.626
				c2.124-2.162,3.343-4.979,3.464-7.986L14.114,17.924z M24.301,20.629c-1.404,4.038-5.217,6.776-9.488,6.814
				c-0.754,0.008-1.508-0.07-2.24-0.228c-4.588-0.996-7.948-5.125-7.988-9.821c-0.039-4.27,2.632-8.131,6.644-9.607l0.817-0.301
				l0.11,12.432l12.432-0.108L24.301,20.629z"/>
		</g>
	</g>
</g>
</svg>
